<svg width="289" height="63" viewBox="0 0 289 63" fill="none" xmlns="http://www.w3.org/2000/svg">
<path d="M106.761 10.8799H94.2701L89.8545 43.635H98.7842L99.2334 37.6745H102.247L102.685 43.6131H111.708L106.761 10.8799ZM102.214 31.6977H99.2334L100.526 18.1551C100.526 18.1551 102.329 31.621 102.214 31.6977Z" fill="#181818"/>
<path d="M199.79 37.6368C199.953 38.7933 200.416 39.8869 201.132 40.8088C202.025 41.9206 203.203 42.7689 204.54 43.2631C206.214 43.9211 208.001 44.2413 209.799 44.2054C211.395 44.2315 212.982 43.9583 214.478 43.4001C215.725 42.9254 216.821 42.1229 217.65 41.0773C218.471 40.0473 218.948 38.1025 219.112 37.1274C219.332 35.5873 219.418 34.0311 219.37 32.4762V10.8477H210.714V35.199C210.777 36.2024 210.696 37.2097 210.473 38.1902C210.393 38.3953 210.248 38.5684 210.06 38.6823C209.872 38.7963 209.651 38.8448 209.432 38.8202C209.233 38.842 209.033 38.8009 208.859 38.7026C208.685 38.6043 208.546 38.4538 208.462 38.2723C208.263 37.4017 208.187 36.5072 208.238 35.6153V10.8586H199.582V30.0329C199.582 33.6212 199.648 36.5247 199.779 37.6259" fill="#181818"/>
<path d="M286.311 10.8418H277.666V43.6188H286.311V10.8418Z" fill="#181818"/>
<path d="M260.392 29.6439H262.983V43.6137H271.623V10.8477H262.983V22.5166H260.392V10.8477H251.747V43.6137H260.392V29.6439Z" fill="#181818"/>
<path d="M229.478 42.912C231.429 43.8461 233.578 44.2917 235.74 44.2103C237.894 44.2788 240.025 43.7498 241.898 42.6819C243.34 41.8989 244.474 40.6492 245.113 39.1374C245.601 37.7952 245.842 34.552 245.842 31.3362V30.0543H237.186V34.9848C237.25 36.0782 237.15 37.175 236.89 38.2389C236.751 38.4514 236.56 38.6259 236.337 38.7466C236.113 38.8673 235.863 38.9305 235.608 38.9305C235.354 38.9305 235.104 38.8673 234.88 38.7466C234.656 38.6259 234.466 38.4514 234.326 38.2389C234.129 37.7842 234.069 36.7981 234.069 35.2861V19.9083C234.069 18.3306 234.129 16.7583 234.326 16.2762C234.524 15.7941 234.929 15.5859 235.636 15.5859C236.342 15.5859 236.731 15.7722 236.901 16.1337C237.071 16.4953 237.186 18.0567 237.186 19.618V25.0361H245.826V22.0942C245.826 19.1852 245.557 16.5118 245.042 15.1422C244.411 13.6371 243.254 12.4125 241.788 11.6963C239.89 10.7167 237.77 10.2466 235.636 10.3322C233.884 10.2974 232.142 10.5968 230.503 11.2142C229.17 11.7175 227.996 12.5665 227.1 13.674C226.339 14.6042 225.836 15.7192 225.643 16.9062C225.442 18.758 225.356 20.6206 225.386 22.4832V31.5444C225.386 34.5958 225.665 37.8171 226.202 39.3401C226.787 40.9156 227.967 42.1983 229.489 42.912" fill="#181818"/>
<path d="M123.697 43.5973L123.691 22.0345L126.754 43.5918H131.969L135.223 22.1166V43.5918H142.827L142.783 10.8477H131.591L129.46 26.1104L127.329 10.8477H116.137L116.142 43.5918L123.697 43.5973Z" fill="#181818"/>
<path d="M74.2874 43.6246H82.2749V31.7037L88.5969 10.875H80.6478L78.4345 23.7437L76.1446 10.875H68.2119L74.2874 31.7037V43.6246Z" fill="#181818"/>
<path d="M156.814 37.6634H159.827L160.259 43.602H169.282L164.352 10.8633H151.85L147.435 43.6184H156.364L156.814 37.6634ZM158.101 18.1605C158.101 18.1605 159.903 31.6317 159.794 31.6975H156.814L158.101 18.1605Z" fill="#181818"/>
<path d="M174.837 40.6387C175.527 41.7182 176.484 42.6013 177.615 43.2026C178.868 43.8602 180.264 44.1971 181.68 44.1832C182.901 44.1832 184.194 44.0024 185.021 43.4053C186.005 42.7862 186.793 41.901 187.295 40.8524L188.089 43.5915H193.568V26.2471H183.57V30.6024H185.104V35.0891C185.168 36.0844 185.051 37.0831 184.758 38.0365C184.651 38.2817 184.468 38.4865 184.237 38.6213C184.006 38.7562 183.737 38.8142 183.471 38.787C183.231 38.8129 182.989 38.7629 182.778 38.644C182.568 38.5251 182.4 38.3433 182.299 38.1241C182.063 37.2182 181.969 36.2813 182.019 35.3466V19.3443C182.019 17.7446 182.123 16.7366 182.299 16.3586C182.436 16.1601 182.623 16.0017 182.842 15.8997C183.06 15.7976 183.302 15.7556 183.542 15.7779C184.161 15.7779 184.638 15.9039 184.835 16.3586C185.016 17.0377 185.106 17.7377 185.104 18.4404C185.104 18.802 185.104 19.3662 185.104 19.81V22.4451H193.573V21.7329C193.573 19.169 193.299 16.8024 192.784 15.4273C192.269 14.0522 191.179 12.9127 189.497 11.9157C187.565 10.8339 185.378 10.2873 183.164 10.3324C180.916 10.277 178.706 10.918 176.837 12.1677C175.193 13.2962 174.213 14.5453 173.873 15.8984C173.453 18.191 173.27 20.5205 173.325 22.8505V32.339C173.29 34.0775 173.374 35.8164 173.577 37.5434C173.751 38.6555 174.174 39.7138 174.815 40.6387" fill="#181818"/>
<circle cx="27.8634" cy="27.8634" r="23.6837" fill="white"/>
<path d="M27.858 5.37135e-07C33.369 -0.00108133 38.7567 1.63215 43.3395 4.69314C47.9224 7.75412 51.4945 12.1054 53.6043 17.1966C55.714 22.2879 56.2666 27.8904 55.1921 33.2957C54.1176 38.701 51.4643 43.6662 47.5678 47.5635C43.6712 51.4608 38.7064 54.115 33.3013 55.1906C27.8962 56.2661 22.2935 55.7147 17.2018 53.6059C12.1101 51.4972 7.75813 47.9259 4.69621 43.3437C1.6343 38.7615 1.06192e-07 33.3742 0 27.8632C-1.42374e-07 20.4744 2.93485 13.3881 8.15907 8.16287C13.3833 2.93767 20.4691 0.00145103 27.858 5.37135e-07ZM41.6201 19.56C42.2359 18.9442 42.5819 18.109 42.5819 17.2381C42.5819 16.3672 42.2359 15.532 41.6201 14.9162C41.0043 14.3003 40.169 13.9544 39.2981 13.9544C38.4272 13.9544 37.592 14.3003 36.9762 14.9162L28.3229 23.5694H27.6556L19.0023 14.9162C18.3864 14.2996 17.5509 13.953 16.6795 13.9524C15.8081 13.9519 14.9722 14.2976 14.3556 14.9134C13.7391 15.5292 13.3924 16.3648 13.3919 17.2362C13.3914 18.1076 13.7371 18.9435 14.3529 19.56L24.6362 29.8323V44.5351C24.671 45.3903 25.0351 46.1988 25.6524 46.7915C26.2697 47.3842 27.0924 47.7152 27.9482 47.7152C28.804 47.7152 29.6267 47.3842 30.244 46.7915C30.8613 46.1988 31.2254 45.3903 31.2602 44.5351V29.9144L41.6201 19.56Z" fill="#E03638"/>
</svg>
