<svg width="13" height="17" viewBox="0 0 13 17" fill="none" xmlns="http://www.w3.org/2000/svg">
<path fill-rule="evenodd" clip-rule="evenodd" d="M5.98169 0.628662C8.19635 0.628662 9.89035 1.032 11.0637 1.83866C12.2517 2.64533 12.8457 3.90666 12.8457 5.62266C12.8457 6.51733 12.6844 7.28733 12.3617 7.93266C12.0537 8.56333 11.599 9.084 10.9977 9.49466C10.3964 9.89066 9.66302 10.184 8.79769 10.3747C7.93235 10.5653 6.94235 10.6607 5.82769 10.6607H4.44169V12.0094H9.12605V14.0483H4.44169V16.0287H1.66969V14.0483H0.198303V12.0094H1.66969V10.6567H0.198303V8.28564H1.66969V1.00266C2.31502 0.855996 3.02635 0.760663 3.80369 0.716662C4.59569 0.657996 5.32169 0.628662 5.98169 0.628662ZM6.17969 3.02666C5.47569 3.02666 4.89635 3.04866 4.44169 3.09266V8.28466H5.78369C7.11835 8.28466 8.14502 8.10133 8.86369 7.73466C9.58235 7.35333 9.94169 6.642 9.94169 5.60066C9.94169 5.102 9.84635 4.684 9.65569 4.34666C9.46502 4.00933 9.20102 3.74533 8.86369 3.55466C8.52635 3.364 8.12302 3.232 7.65369 3.15866C7.19902 3.07066 6.70769 3.02666 6.17969 3.02666Z" fill="#575757"/>
</svg>
