<svg width="146" height="43" viewBox="0 0 146 43" fill="none" xmlns="http://www.w3.org/2000/svg">
<path d="M133.645 0H11.5644C11.1159 0 10.6823 0 10.2338 0C9.86002 0 9.49373 0.00748522 9.11996 0.0149704C8.31262 0.0299409 7.4978 0.0748522 6.69046 0.202101C5.87564 0.32935 5.12063 0.546421 4.38057 0.875771C3.65546 1.20512 2.99015 1.63178 2.41454 2.14077C1.83146 2.64977 1.35304 3.2411 0.986744 3.88483C0.612975 4.53604 0.366292 5.20971 0.231735 5.9283C0.0822273 6.63939 0.0373687 7.35797 0.0149425 8.08404C-8.21236e-06 8.41339 0 8.74274 0 9.07209C0 9.46132 0 9.85055 0 10.2473V32.7553C0 33.152 0 33.5413 0 33.9305C0.00747538 34.2673 0.00746716 34.5892 0.0149425 34.9186C0.0373687 35.6371 0.0897027 36.3557 0.231735 37.0743C0.373767 37.7929 0.612975 38.4666 0.986744 39.1253C1.35304 39.769 1.83894 40.3528 2.41454 40.8618C2.99015 41.3783 3.65546 41.805 4.38057 42.1268C5.12063 42.4637 5.87564 42.6733 6.69046 42.808C7.4978 42.9352 8.31262 42.9801 9.11996 42.9951C9.49373 43.0026 9.86002 43.0101 10.2338 43.0101C10.6748 43.0101 11.1159 43.0101 11.5644 43.0101H133.637C134.071 43.0101 134.519 43.0101 134.953 43.0101C135.319 43.0101 135.701 43.0026 136.074 42.9951C136.889 42.9727 137.704 42.9352 138.504 42.808C139.319 42.6807 140.074 42.4637 140.821 42.1268C141.546 41.7975 142.212 41.3708 142.787 40.8618C143.363 40.3603 143.849 39.769 144.222 39.1253C144.596 38.474 144.835 37.8004 144.97 37.0743C145.119 36.3632 145.164 35.6446 145.194 34.9186C145.202 34.5817 145.202 34.2599 145.202 33.9305C145.209 33.5413 145.209 33.152 145.209 32.7553V10.2548C145.209 9.85804 145.209 9.46881 145.202 9.07957C145.202 8.75023 145.202 8.42088 145.194 8.09153C145.164 7.37294 145.119 6.65436 144.97 5.93578C144.835 5.2172 144.589 4.54353 144.222 3.89232C143.849 3.24859 143.37 2.65725 142.787 2.14826C142.212 1.63926 141.546 1.21261 140.821 0.883256C140.074 0.553907 139.319 0.336835 138.504 0.209586C137.704 0.0823374 136.889 0.0374261 136.074 0.0224557C135.708 0.0149704 135.327 0.00748522 134.953 0.00748522C134.519 1.39423e-09 134.078 0 133.645 0Z" fill="black"/>
<path d="M10.2488 42.074C9.88246 42.074 9.51617 42.0665 9.14988 42.059C8.46962 42.0441 7.66975 42.0066 6.88484 41.8869C6.14477 41.7671 5.48694 41.5725 4.87396 41.2955C4.23855 41.0111 3.67043 40.6443 3.17706 40.2027C2.67621 39.7686 2.26506 39.267 1.93614 38.6982C1.62218 38.1517 1.40539 37.5754 1.2783 36.9167C1.1288 36.1906 1.09143 35.4571 1.07648 34.9032C1.069 34.6786 1.06152 33.9226 1.06152 33.9226V9.07914C1.06152 9.07914 1.069 8.3381 1.07648 8.11355C1.09143 7.55216 1.1288 6.8186 1.2783 6.10002C1.40539 5.44132 1.62218 4.85748 1.93614 4.31105C2.25758 3.74966 2.66872 3.24067 3.16957 2.80652C3.67042 2.3649 4.24603 1.99064 4.87396 1.7062C5.49442 1.42924 6.15225 1.23463 6.87737 1.12235C7.69218 0.995101 8.52194 0.957675 9.14988 0.942705L10.2413 0.927734H134.946L136.052 0.942705C136.672 0.957675 137.502 0.987616 138.309 1.11486C139.042 1.22714 139.7 1.42176 140.335 1.7062C140.956 1.99064 141.524 2.35741 142.025 2.79904C142.518 3.23318 142.937 3.74218 143.266 4.31105C143.58 4.85748 143.789 5.44132 143.916 6.08505C144.058 6.76621 144.103 7.46233 144.125 8.11355C144.125 8.42044 144.125 8.74231 144.125 9.07166C144.133 9.47586 144.133 9.8576 144.133 10.2468V32.7549C144.133 33.1441 144.133 33.5259 144.125 33.9076C144.125 34.2594 144.125 34.5813 144.118 34.9106C144.095 35.5469 144.051 36.243 143.909 36.9017C143.781 37.5604 143.572 38.1443 143.251 38.6982C142.922 39.2596 142.511 39.7611 142.017 40.1877C141.516 40.6368 140.948 41.0036 140.32 41.2881C139.692 41.5725 139.05 41.7596 138.294 41.8794C137.517 42.0066 136.71 42.0366 136.029 42.0515C135.671 42.059 135.304 42.0665 134.938 42.0665H133.622L10.2488 42.074Z" fill="white"/>
<path d="M29.617 21.2731C29.5871 17.7551 32.495 16.041 32.6296 15.9586C30.985 13.5484 28.4284 13.2265 27.5314 13.1966C25.3859 12.972 23.3078 14.484 22.2089 14.484C21.0951 14.484 19.4131 13.219 17.5966 13.2565C15.2643 13.2939 13.0815 14.6487 11.8779 16.7446C9.40358 21.0261 11.25 27.3287 13.6197 30.7943C14.8008 32.4935 16.1912 34.3872 18.0003 34.3199C19.7719 34.245 20.4372 33.1896 22.5752 33.1896C24.6982 33.1896 25.3186 34.3199 27.1651 34.2824C29.0638 34.2525 30.2673 32.5758 31.4111 30.8692C32.7791 28.923 33.3322 27.0068 33.3547 26.9095C33.3023 26.8945 29.6544 25.4948 29.617 21.2731Z" fill="#181818"/>
<path d="M26.1268 10.9218C27.0762 9.72417 27.734 8.09987 27.5546 6.45312C26.1717 6.51301 24.4448 7.41123 23.4581 8.57893C22.576 9.6044 21.7911 11.2961 21.9929 12.8829C23.5403 12.9952 25.1326 12.097 26.1268 10.9218Z" fill="#181818"/>
<path d="M55.1379 29.8594H49.4267L48.0587 33.9164H45.6367L51.0489 18.916H53.5606L58.9728 33.9164H56.5134L55.1379 29.8594ZM50.0173 27.9881H54.5474L52.3122 21.4086H52.2524L50.0173 27.9881Z" fill="#181818"/>
<path d="M70.649 28.4521C70.649 31.8504 68.8325 34.0361 66.0891 34.0361C64.5342 34.0361 63.2933 33.34 62.6504 32.1199H62.5981V37.5392H60.3555V22.9804H62.5233V24.7994H62.5682C63.1886 23.6242 64.5192 22.8682 66.0442 22.8682C68.8251 22.8682 70.649 25.0613 70.649 28.4521ZM68.3466 28.4521C68.3466 26.2365 67.2029 24.7844 65.4611 24.7844C63.7493 24.7844 62.5981 26.2739 62.5981 28.4521C62.5981 30.6528 63.7493 32.1349 65.4611 32.1349C67.2029 32.1274 68.3466 30.6827 68.3466 28.4521Z" fill="#181818"/>
<path d="M82.6774 28.4521C82.6774 31.8504 80.8609 34.0361 78.1174 34.0361C76.5625 34.0361 75.3216 33.34 74.6787 32.1199H74.6264V37.5392H72.3838V22.9804H74.5516V24.7994H74.5965C75.2169 23.6242 76.5476 22.8682 78.0725 22.8682C80.8459 22.8682 82.6774 25.0613 82.6774 28.4521ZM80.3675 28.4521C80.3675 26.2365 79.2238 24.7844 77.482 24.7844C75.7701 24.7844 74.6189 26.2739 74.6189 28.4521C74.6189 30.6528 75.7701 32.1349 77.482 32.1349C79.2238 32.1274 80.3675 30.6827 80.3675 28.4521Z" fill="#181818"/>
<path d="M90.624 29.7393C90.7885 31.2288 92.2312 32.2019 94.2047 32.2019C96.096 32.2019 97.4565 31.2213 97.4565 29.8815C97.4565 28.7138 96.6342 28.0177 94.6981 27.5386L92.7545 27.067C90.0036 26.4009 88.7253 25.1134 88.7253 23.025C88.7253 20.4351 90.9754 18.6611 94.1748 18.6611C97.3444 18.6611 99.5123 20.4426 99.587 23.025H97.322C97.1874 21.528 95.954 20.6223 94.1449 20.6223C92.3359 20.6223 91.1025 21.5355 91.1025 22.8678C91.1025 23.9307 91.8949 24.552 93.8235 25.0311L95.4756 25.4353C98.5479 26.1613 99.8262 27.3964 99.8262 29.597C99.8262 32.404 97.5911 34.163 94.0403 34.163C90.7137 34.163 88.4711 32.4489 88.3291 29.7318H90.624V29.7393Z" fill="#181818"/>
<path d="M104.662 20.3903V22.9802H106.74V24.7617H104.662V30.7948C104.662 31.7304 105.08 32.1645 105.992 32.1645C106.224 32.1645 106.583 32.1346 106.732 32.1122V33.8787C106.486 33.9385 105.985 33.9835 105.484 33.9835C103.271 33.9835 102.412 33.1526 102.412 31.0268V24.7542H100.819V22.9727H102.404V20.3828H104.662V20.3903Z" fill="#181818"/>
<path d="M107.943 28.4521C107.943 25.0089 109.969 22.8457 113.124 22.8457C116.293 22.8457 118.304 25.0089 118.304 28.4521C118.304 31.9028 116.301 34.0586 113.124 34.0586C109.947 34.0511 107.943 31.9028 107.943 28.4521ZM116.017 28.4521C116.017 26.0943 114.933 24.6946 113.116 24.6946C111.3 24.6946 110.223 26.1018 110.223 28.4521C110.223 30.8249 111.3 32.2022 113.116 32.2022C114.933 32.2022 116.017 30.8175 116.017 28.4521Z" fill="#181818"/>
<path d="M120.15 22.9804H122.288V24.8443H122.341C122.685 23.6092 123.679 22.8682 124.972 22.8682C125.293 22.8682 125.563 22.9131 125.742 22.9505V25.0538C125.563 24.979 125.174 24.9191 124.733 24.9191C123.29 24.9191 122.393 25.8997 122.393 27.4341V33.9238H120.15V22.9804Z" fill="#181818"/>
<path d="M136.081 30.7058C135.782 32.6894 133.846 34.0517 131.379 34.0517C128.202 34.0517 126.229 31.9184 126.229 28.4977C126.229 25.0695 128.209 22.8389 131.282 22.8389C134.302 22.8389 136.208 24.9198 136.208 28.2357V29.0067H128.494V29.1414C128.494 31.0127 129.667 32.2403 131.431 32.2403C132.68 32.2403 133.652 31.649 133.951 30.6984H136.081V30.7058ZM128.501 27.4423H133.966C133.913 25.7656 132.844 24.6653 131.289 24.6653C129.734 24.6653 128.613 25.788 128.501 27.4423Z" fill="#181818"/>
<path d="M47.9919 9.90421H48.9264C49.7038 9.90421 50.242 9.44761 50.242 8.78892C50.242 8.14519 49.7561 7.72601 48.9338 7.72601C48.119 7.72601 47.5883 8.1377 47.5285 8.81886H46.5043C46.5791 7.56134 47.5135 6.77539 48.9712 6.77539C50.3467 6.77539 51.311 7.54637 51.311 8.65418C51.311 9.42516 50.7952 10.0764 50.0402 10.2485V10.3309C50.9447 10.4207 51.5951 11.0495 51.5951 12.0225C51.5951 13.2202 50.4663 14.1034 48.9862 14.1034C47.4687 14.1034 46.4296 13.28 46.3623 12.0375H47.4014C47.4612 12.7037 48.0742 13.1378 48.9787 13.1378C49.8832 13.1378 50.4738 12.6513 50.4738 11.9701C50.4738 11.274 49.9206 10.8548 48.9488 10.8548H47.9845V9.90421H47.9919Z" fill="#181818"/>
<path d="M52.7754 12.4493C52.7754 11.4987 53.4856 10.9522 54.7339 10.8774L56.1617 10.7951V10.3385C56.1617 9.78455 55.7955 9.47017 55.0853 9.47017C54.5022 9.47017 54.106 9.67975 53.9864 10.054H52.9772C53.0819 9.1483 53.9341 8.56445 55.1301 8.56445C56.4533 8.56445 57.1933 9.22315 57.1933 10.3385V13.9388H56.1916V13.1978H56.1094C55.7954 13.7293 55.2198 14.0287 54.5246 14.0287C53.5155 14.0287 52.7754 13.4074 52.7754 12.4493ZM56.1617 11.9927V11.5511L54.876 11.6334C54.1509 11.6783 53.822 11.9253 53.822 12.3969C53.822 12.8685 54.2331 13.1454 54.8012 13.1454C55.5861 13.1454 56.1617 12.6514 56.1617 11.9927Z" fill="#181818"/>
<path d="M59.96 9.5369V13.9307H58.9209V8.66113H62.3895V9.5369H59.96Z" fill="#181818"/>
<path d="M68.6834 11.2959C68.6834 12.9726 67.8387 14.0205 66.5081 14.0205C65.7606 14.0205 65.1625 13.6912 64.8859 13.1373H64.8037V15.6897H63.7646V8.66111H64.7664V9.5294H64.8411C65.1625 8.93058 65.7755 8.57129 66.4932 8.57129C67.8387 8.57877 68.6834 9.61922 68.6834 11.2959ZM67.6145 11.2959C67.6145 10.1806 67.0912 9.50694 66.2091 9.50694C65.3345 9.50694 64.7888 10.1956 64.7888 11.2959C64.7888 12.3962 65.3345 13.0849 66.2091 13.0849C67.0912 13.0924 67.6145 12.4187 67.6145 11.2959Z" fill="#181818"/>
<path d="M70.0662 15.8248V14.9266C70.1484 14.9416 70.3054 14.949 70.4026 14.949C70.896 14.949 71.1726 14.7469 71.352 14.2155L71.4267 13.961L69.5205 8.66895H70.6493L71.9724 12.8607H72.0546L73.3703 8.66895H74.4692L72.5032 14.1631C72.0546 15.4431 71.5538 15.8548 70.4848 15.8548C70.4101 15.8473 70.1634 15.8398 70.0662 15.8248Z" fill="#181818"/>
<path d="M75.292 12.4411H76.3236C76.4282 12.9052 76.8618 13.1448 77.4673 13.1448C78.1625 13.1448 78.5812 12.8379 78.5812 12.3663C78.5812 11.8573 78.1999 11.6178 77.4673 11.6178H76.6824V10.8094H77.4599C78.0878 10.8094 78.4092 10.5698 78.4092 10.1282C78.4092 9.73898 78.1027 9.44706 77.4599 9.44706C76.8768 9.44706 76.4507 9.69407 76.3834 10.1132H75.3817C75.4863 9.17011 76.2638 8.57129 77.4599 8.57129C78.7083 8.57129 79.4259 9.14017 79.4259 10.0309C79.4259 10.5624 79.0895 10.989 78.5961 11.1088V11.1911C79.2764 11.3483 79.6277 11.7899 79.6277 12.3738C79.6277 13.3768 78.7755 14.043 77.4748 14.043C76.3236 14.0355 75.3892 13.504 75.292 12.4411Z" fill="#181818"/>
<path d="M81.123 13.9385V8.66895H82.1546V12.2993H82.2369L84.6664 8.66895H85.698V13.9385H84.6664V10.2932H84.5916L82.1621 13.9385H81.123Z" fill="#181818"/>
<path d="M91.364 9.5369H89.7045V13.9307H88.6654V9.5369H87.0059V8.66113H91.364V9.5369Z" fill="#181818"/>
<path d="M96.9624 12.5167C96.7232 13.4598 95.886 14.0436 94.6824 14.0436C93.1724 14.0436 92.2529 13.0107 92.2529 11.319C92.2529 9.63484 93.1948 8.56445 94.6824 8.56445C96.1476 8.56445 97.0297 9.56747 97.0297 11.2217V11.5885H93.3144V11.6484C93.3443 12.5765 93.8826 13.1604 94.7198 13.1604C95.3477 13.1604 95.7813 12.9358 95.9682 12.5241H96.9624V12.5167ZM93.307 10.8175H95.9682C95.9458 9.98665 95.4449 9.4552 94.6749 9.4552C93.905 9.44771 93.3668 9.99413 93.307 10.8175Z" fill="#181818"/>
<path d="M101.373 8.66113H103.75C104.782 8.66113 105.387 9.1851 105.387 10.001C105.387 10.5324 105.014 11.019 104.498 11.1163V11.1986C105.178 11.2735 105.627 11.775 105.627 12.4112C105.627 13.3319 104.939 13.9307 103.78 13.9307H101.381V8.66113H101.373ZM102.397 9.46205V10.8244H103.429C104.057 10.8244 104.356 10.5848 104.356 10.1357C104.356 9.72404 104.094 9.45457 103.541 9.45457H102.397V9.46205ZM102.397 11.5953V13.1373H103.631C104.244 13.1373 104.573 12.8678 104.573 12.3663C104.573 11.8349 104.199 11.5879 103.496 11.5879H102.397V11.5953Z" fill="#181818"/>
</svg>
