<svg width="24" height="24" viewBox="0 0 24 24" fill="none" xmlns="http://www.w3.org/2000/svg">
<path d="M11.8437 5.1875C11.9687 5.03125 12.2187 5.03125 12.375 5.1875L18.9062 11.7188C19.0625 11.875 19.0625 12.0937 18.9062 12.25L12.375 18.7813C12.2187 18.9375 11.9687 18.9375 11.8437 18.7813L11.2187 18.1875C11.0625 18.0313 11.0625 17.7813 11.2187 17.6563L16.0625 12.8125L5.375 12.8125C5.1875 12.8125 5 12.625 5 12.4375L5 11.5625C5 11.3438 5.1875 11.1875 5.375 11.1875L16.0625 11.1875L11.2187 6.3125C11.0625 6.1875 11.0625 5.9375 11.2187 5.78125L11.8437 5.1875Z" fill="#333333"/>
</svg>
