<svg width="24" height="24" viewBox="0 0 24 24" fill="none" xmlns="http://www.w3.org/2000/svg">
<path d="M12 4.25C16.25 4.25 19.75 7.75 19.75 12C19.75 16.2812 16.25 19.75 12 19.75C7.71875 19.75 4.25 16.2812 4.25 12C4.25 7.75 7.71875 4.25 12 4.25ZM12 18.25C15.4375 18.25 18.25 15.4688 18.25 12C18.25 8.5625 15.4375 5.75 12 5.75C8.53125 5.75 5.75 8.5625 5.75 12C5.75 15.4688 8.53125 18.25 12 18.25ZM13.3125 15C13.3125 15.75 12.7188 16.3125 12 16.3125C11.25 16.3125 10.6875 15.75 10.6875 15C10.6875 14.2812 11.25 13.6875 12 13.6875C12.7188 13.6875 13.3125 14.2812 13.3125 15ZM10.75 8.40625C10.75 8.1875 10.9062 8 11.125 8H12.8438C13.0625 8 13.2188 8.1875 13.2188 8.40625L13 12.6562C13 12.8438 12.8125 13 12.625 13H11.3438C11.1562 13 10.9688 12.8438 10.9688 12.6562L10.75 8.40625Z" fill="#E03638"/>
</svg>
