<svg width="24" height="24" viewBox="0 0 24 24" fill="none" xmlns="http://www.w3.org/2000/svg">
<path d="M12 4.25C16.2812 4.25 19.75 7.71875 19.75 12C19.75 16.2812 16.2812 19.75 12 19.75C7.71875 19.75 4.25 16.2812 4.25 12C4.25 7.71875 7.71875 4.25 12 4.25ZM12 18.25C15.4375 18.25 18.25 15.4688 18.25 12C18.25 8.5625 15.4375 5.75 12 5.75C8.53125 5.75 5.75 8.5625 5.75 12C5.75 15.4688 8.53125 18.25 12 18.25ZM15.1562 10.0625L13.2188 12L15.1562 13.9688C15.3125 14.0938 15.3125 14.3438 15.1562 14.5L14.4688 15.1875C14.3125 15.3438 14.0625 15.3438 13.9375 15.1875L12 13.25L10.0312 15.1875C9.90625 15.3438 9.65625 15.3438 9.5 15.1875L8.8125 14.5C8.65625 14.3438 8.65625 14.0938 8.8125 13.9688L10.75 12L8.8125 10.0625C8.65625 9.9375 8.65625 9.6875 8.8125 9.53125L9.5 8.84375C9.65625 8.6875 9.90625 8.6875 10.0312 8.84375L12 10.7812L13.9375 8.84375C14.0625 8.6875 14.3125 8.6875 14.4688 8.84375L15.1562 9.53125C15.3125 9.6875 15.3125 9.9375 15.1562 10.0625Z" fill="#E03638"/>
</svg>
