<svg width="32" height="32" viewBox="0 0 32 32" fill="none" xmlns="http://www.w3.org/2000/svg">
<rect width="32" height="32" rx="7" fill="white"/>
<path d="M27 11.3321V12.2255H5V11.3321C5 9.49507 6.55105 8 8.45669 8H23.5431C25.4489 8 27 9.49507 27 11.3321ZM27 13.6004V20.6679C27 22.5054 25.4489 24 23.5431 24H8.45669C6.55089 24 5 22.5054 5 20.6679V13.6004H27ZM11.5245 18.6452C11.5245 18.1918 11.1433 17.8239 10.6724 17.8239H9.88133C9.41048 17.8239 9.02929 18.1918 9.02929 18.6452V19.4082C9.02929 19.8616 9.41048 20.2295 9.88133 20.2295H10.6724C11.1433 20.2295 11.5245 19.8616 11.5245 19.4082V18.6452Z" fill="url(#paint0_linear_2707_5913)"/>
<defs>
<linearGradient id="paint0_linear_2707_5913" x1="6.54202" y1="8.35034" x2="24.8799" y2="24.3139" gradientUnits="userSpaceOnUse">
<stop stop-color="#77E95D"/>
<stop offset="1" stop-color="#24AF24"/>
</linearGradient>
</defs>
</svg>
