<svg width="40" height="40" viewBox="0 0 40 40" fill="none" xmlns="http://www.w3.org/2000/svg">
<rect width="40" height="40" rx="8.75" fill="#F1F1F1"/>
<path d="M31 15.3321V16.2255H9V15.3321C9 13.4951 10.5511 12 12.4567 12H27.5431C29.4489 12 31 13.4951 31 15.3321ZM31 17.6004V24.6679C31 26.5054 29.4489 28 27.5431 28H12.4567C10.5509 28 9 26.5054 9 24.6679V17.6004H31ZM15.5245 22.6452C15.5245 22.1918 15.1433 21.8239 14.6724 21.8239H13.8813C13.4105 21.8239 13.0293 22.1918 13.0293 22.6452V23.4082C13.0293 23.8616 13.4105 24.2295 13.8813 24.2295H14.6724C15.1433 24.2295 15.5245 23.8616 15.5245 23.4082V22.6452Z" fill="#E03638"/>
</svg>
