<svg width="13" height="13" viewBox="0 0 13 13" fill="none" xmlns="http://www.w3.org/2000/svg">
<path d="M6.66699 2.71871C8.986 2.71871 10.8649 4.59762 10.8649 6.91663C10.8649 9.23564 8.986 11.1145 6.66699 11.1145C4.34798 11.1145 2.46908 9.23564 2.46908 6.91663C2.46908 4.59762 4.34798 2.71871 6.66699 2.71871ZM6.66699 10.302C8.52897 10.302 10.0524 8.79553 10.0524 6.91663C10.0524 5.05465 8.52897 3.53121 6.66699 3.53121C4.78809 3.53121 3.28158 5.05465 3.28158 6.91663C3.28158 8.79553 4.78809 10.302 6.66699 10.302ZM7.69954 8.54163L6.26074 7.49215C6.20996 7.45829 6.19303 7.39058 6.19303 7.3398V4.54683C6.19303 4.44527 6.27767 4.34371 6.39616 4.34371H6.93783C7.03939 4.34371 7.14095 4.44527 7.14095 4.54683V6.95048L8.25814 7.77991C8.3597 7.84762 8.37663 7.96611 8.30892 8.06767L7.9873 8.49084C7.9196 8.59241 7.80111 8.60933 7.69954 8.54163Z" fill="#E03638"/>
</svg>
