<svg width="36" height="36" viewBox="0 0 36 36" fill="none" xmlns="http://www.w3.org/2000/svg">
<path d="M20.2031 18L25.2656 23.0625C25.5469 23.3438 25.5469 23.8594 25.2656 24.1406L24.0938 25.3125C23.8125 25.5938 23.2969 25.5938 23.0156 25.3125L18 20.25L12.9375 25.3125C12.6562 25.5938 12.1406 25.5938 11.8594 25.3125L10.6875 24.1406C10.4062 23.8594 10.4062 23.3438 10.6875 23.0625L15.75 18L10.6875 12.9844C10.4062 12.7031 10.4062 12.1875 10.6875 11.9062L11.8594 10.7344C12.1406 10.4531 12.6562 10.4531 12.9375 10.7344L18 15.7969L23.0156 10.7344C23.2969 10.4531 23.8125 10.4531 24.0938 10.7344L25.2656 11.9062C25.5469 12.1875 25.5469 12.7031 25.2656 12.9844L20.2031 18Z" fill="white"/>
</svg>
