<svg width="21" height="14" viewBox="0 0 21 14" fill="none" xmlns="http://www.w3.org/2000/svg">
<path style="mix-blend-mode:multiply" d="M20.19 8.76918C19.9369 12.0295 15.2592 14.3246 9.74194 13.8962C4.22464 13.4678 -0.0422698 10.4773 0.210904 7.21753C0.464077 3.95723 5.1417 1.66209 10.6585 2.09049C16.1752 2.5189 20.4427 5.50889 20.1895 8.76918H20.19Z" fill="url(#paint0_radial_264_432)"/>
<path style="mix-blend-mode:multiply" opacity="0.5" d="M5.49918 13.3209L3.54952 13.4928L1.68555 0.988874L3.6352 0.816406L5.49918 13.3209Z" fill="url(#paint1_linear_264_432)"/>
<mask id="mask0_264_432" style="mask-type:luminance" maskUnits="userSpaceOnUse" x="1" y="1" width="16" height="10">
<path d="M16.3922 8.46928L2.12545 10.6649L1.04199 3.39033L15.5552 1.1582L14.3126 4.90661L16.3922 8.46928Z" fill="white"/>
</mask>
<g mask="url(#mask0_264_432)">
<path d="M15.5215 -0.838391L1.28418 1.47266L3.05123 12.3587L17.2886 10.0476L15.5215 -0.838391Z" fill="#F1F1F1"/>
<path d="M1.7002 4.03125L1.96553 5.66472L5.07105 5.16058L1.7002 4.03125Z" fill="#2950BE"/>
<path d="M3.12695 1.73638L3.22644 2.88893L7.59894 4.3643L7.00138 0.685547L3.12695 1.73638Z" fill="#2950BE"/>
<path d="M6.74257 4.87748L1.55859 3.15723L1.65422 3.74594L5.60384 5.06266L6.74257 4.87748Z" fill="#C8001E"/>
<path d="M11.833 6.62659L17.017 8.34684L16.9213 7.75868L12.9717 6.44141L11.833 6.62659Z" fill="#C8001E"/>
<path d="M2.63545 9.79916L2.37012 8.16624L5.47563 7.66211L2.63545 9.79916Z" fill="#2950BE"/>
<path d="M4.6714 11.8758L4.44531 10.3999L8.12628 7.61719L8.7863 11.6845L4.6714 11.8758Z" fill="#2950BE"/>
<path d="M7.12427 7.3914L2.77832 10.6583L3.88995 10.4787L8.08557 7.33999L8.06898 7.23828L7.12427 7.3914Z" fill="#C8001E"/>
<path d="M15.9417 1.71875L16.2071 3.35166L13.1016 3.85635L15.9417 1.71875Z" fill="#2950BE"/>
<path d="M15.1538 0.0482037L14.1323 1.11839L10.4513 3.90108L9.80566 -0.0761719L15.1538 0.0482037Z" fill="#2950BE"/>
<path d="M15.7959 0.849609L14.7268 1.02263L10.502 4.18398L10.5152 4.26856L11.492 4.11046L15.7959 0.849609Z" fill="#C8001E"/>
<path d="M16.8772 7.48601L16.6124 5.85254L13.5068 6.35667L16.8772 7.48601Z" fill="#2950BE"/>
<path d="M15.791 9.5546L15.3505 8.62869L10.9785 7.15332L11.5833 10.8802L15.791 9.5546Z" fill="#2950BE"/>
<path d="M9.30572 0.194713L7.49316 0.489258L9.23871 11.2309L11.0513 10.9364L9.30572 0.194713Z" fill="#C8001E"/>
<path d="M15.8297 3.72219L2.42285 5.89844L2.71708 7.71105L16.124 5.5348L15.8297 3.72219Z" fill="#C8001E"/>
</g>
<path style="mix-blend-mode:screen" d="M3.12396 -0.000389158L2.9375 0.0273438L5.01111 13.9688L5.19757 13.941L3.12396 -0.000389158Z" fill="url(#paint2_radial_264_432)"/>
<g style="mix-blend-mode:multiply">
<path d="M4.26671 12.2827C4.27224 12.322 4.30706 12.3491 4.34354 12.3441L4.39108 12.3369C4.42757 12.3314 4.453 12.2949 4.44692 12.2562L4.37782 11.793C4.37229 11.7537 4.33747 11.7266 4.30099 11.7322L4.25289 11.7393C4.21641 11.7449 4.19153 11.7808 4.19706 11.8201L4.26616 12.2833L4.26671 12.2827Z" fill="#9B9B9B"/>
</g>
<path d="M4.23669 12.2827C4.24222 12.3208 4.27814 12.3474 4.31684 12.3418L4.3666 12.3346C4.40474 12.3291 4.43128 12.2932 4.42575 12.2545L4.3583 11.8001C4.35222 11.762 4.31684 11.7354 4.27815 11.741L4.22785 11.7481C4.18971 11.7537 4.16317 11.7896 4.1687 11.8283L4.23669 12.2827Z" fill="url(#paint3_linear_264_432)"/>
<g style="mix-blend-mode:multiply">
<path d="M4.14269 11.463C4.14821 11.5022 4.18303 11.5293 4.21952 11.5238L4.26706 11.5166C4.30354 11.5111 4.32897 11.4746 4.32289 11.4359L4.25379 10.9727C4.24771 10.9334 4.21343 10.9063 4.1764 10.9118L4.12887 10.919C4.09238 10.9246 4.06751 10.961 4.07303 10.9997L4.14213 11.463H4.14269Z" fill="#9B9B9B"/>
</g>
<path d="M4.11364 11.4624C4.11917 11.5005 4.15565 11.5271 4.19324 11.5215L4.243 11.5143C4.28114 11.5088 4.30822 11.4729 4.30269 11.4342L4.2347 10.9798C4.22917 10.9417 4.19324 10.9151 4.15455 10.9207L4.1048 10.9284C4.06666 10.9339 4.04012 10.9698 4.04565 11.0085L4.11364 11.4629V11.4624Z" fill="url(#paint4_linear_264_432)"/>
<g style="mix-blend-mode:multiply">
<path d="M4.02201 10.6427C4.0281 10.6819 4.06236 10.709 4.09885 10.7035L4.14694 10.6963C4.18343 10.6907 4.2083 10.6543 4.20277 10.6156L4.13368 10.1523C4.1276 10.1131 4.09332 10.086 4.05683 10.0915L4.00875 10.0987C3.97226 10.1043 3.94739 10.1407 3.95292 10.1794L4.02201 10.6427Z" fill="#9B9B9B"/>
</g>
<path d="M3.99212 10.6427C3.9982 10.6809 4.03413 10.7074 4.07172 10.7019L4.12202 10.6941C4.16016 10.6886 4.18669 10.6527 4.18117 10.614L4.11373 10.1596C4.1082 10.1215 4.07227 10.0944 4.03358 10.1005L3.98382 10.1076C3.94568 10.1132 3.9186 10.1491 3.92468 10.1878L3.99212 10.6422V10.6427Z" fill="url(#paint5_linear_264_432)"/>
<g style="mix-blend-mode:multiply">
<path d="M3.89994 9.82179C3.90547 9.86104 3.94029 9.88813 3.97677 9.8826L4.02432 9.87541C4.0608 9.86989 4.08623 9.83396 4.08015 9.79471L4.01105 9.33148C4.00497 9.29223 3.97069 9.26514 3.93421 9.27012L3.88668 9.27731C3.85019 9.28283 3.82532 9.31932 3.83085 9.35801L3.89994 9.82124V9.82179Z" fill="#9B9B9B"/>
</g>
<path d="M3.8695 9.82175C3.87503 9.85989 3.91096 9.88643 3.94965 9.8809L3.9994 9.87371C4.03809 9.86818 4.06463 9.83225 4.05855 9.79356L3.99111 9.33917C3.98503 9.30103 3.94965 9.2745 3.91096 9.28003L3.86065 9.28721C3.82251 9.29274 3.79598 9.32867 3.80151 9.36736L3.8695 9.82175Z" fill="url(#paint6_linear_264_432)"/>
<g style="mix-blend-mode:multiply">
<path d="M3.77647 9.00148C3.78256 9.04073 3.81684 9.06782 3.85387 9.06229L3.9014 9.0551C3.93844 9.04957 3.96332 9.01309 3.95724 8.9744L3.88869 8.51117C3.88261 8.47192 3.84834 8.44483 3.81131 8.44981L3.76376 8.45699C3.72728 8.46252 3.70185 8.49845 3.70793 8.5377L3.77703 9.00093L3.77647 9.00148Z" fill="#9B9B9B"/>
</g>
<path d="M3.74646 9.00144C3.75198 9.03958 3.78846 9.06611 3.82661 9.06058L3.87635 9.05285C3.91449 9.04732 3.94158 9.01139 3.93605 8.97325L3.86806 8.51886C3.86254 8.48072 3.82606 8.45419 3.78791 8.45971L3.73816 8.4669C3.70001 8.47243 3.67292 8.50836 3.67845 8.54705L3.74646 9.00144Z" fill="url(#paint7_linear_264_432)"/>
<g style="mix-blend-mode:multiply">
<path d="M3.65343 8.18117C3.65951 8.22042 3.69379 8.2475 3.73027 8.24198L3.7778 8.23479C3.81429 8.22926 3.83916 8.19333 3.83363 8.15408L3.76454 7.69085C3.75901 7.65161 3.72419 7.62452 3.68771 7.62949L3.63961 7.63668C3.60312 7.64221 3.57825 7.67869 3.58378 7.71739L3.65287 8.18062L3.65343 8.18117Z" fill="#9B9B9B"/>
</g>
<path d="M3.62396 8.18168C3.63004 8.21982 3.66598 8.24635 3.70412 8.24083L3.75442 8.23309C3.79256 8.22756 3.8191 8.19163 3.81357 8.15293L3.74558 7.69855C3.74005 7.66041 3.70411 7.63387 3.66541 7.6394L3.61567 7.64659C3.57753 7.65267 3.55044 7.68805 3.55652 7.72674L3.62396 8.18113V8.18168Z" fill="url(#paint8_linear_264_432)"/>
<g style="mix-blend-mode:multiply">
<path d="M3.5322 7.3603C3.53773 7.39955 3.57256 7.42664 3.60905 7.42166L3.65713 7.41448C3.69362 7.40895 3.71849 7.37247 3.71296 7.33377L3.64387 6.87054C3.63779 6.83129 3.60352 6.80421 3.56704 6.80918L3.51949 6.81637C3.48301 6.8219 3.45813 6.85838 3.46366 6.89707L3.53276 7.3603H3.5322Z" fill="#9B9B9B"/>
</g>
<path d="M3.50274 7.36081C3.50826 7.39895 3.54419 7.42549 3.58289 7.41996L3.63265 7.41222C3.67079 7.40669 3.69732 7.37076 3.6918 7.33262L3.62435 6.87824C3.61826 6.84009 3.58234 6.81356 3.54475 6.81909L3.49445 6.82627C3.45631 6.8318 3.42977 6.86773 3.4353 6.90643L3.50274 7.36081Z" fill="url(#paint9_linear_264_432)"/>
<g style="mix-blend-mode:multiply">
<path d="M3.41082 6.53999C3.4169 6.57924 3.45116 6.60633 3.4882 6.60135L3.53575 6.59416C3.57223 6.58864 3.59711 6.55215 3.59158 6.51346L3.52248 6.05023C3.5164 6.01098 3.48212 5.98389 3.44508 5.98887L3.39755 5.99606C3.36107 6.00158 3.33564 6.03807 3.34172 6.07676L3.41026 6.53999H3.41082Z" fill="#9B9B9B"/>
</g>
<path d="M3.38122 6.53952C3.38675 6.57767 3.42268 6.6042 3.46137 6.59867L3.51113 6.59148C3.54927 6.58596 3.57579 6.55003 3.57027 6.51133L3.50227 6.05695C3.49675 6.0188 3.46082 5.99227 3.42212 5.9978L3.37238 6.00554C3.33424 6.01107 3.3077 6.047 3.31323 6.08514L3.38122 6.53952Z" fill="url(#paint10_linear_264_432)"/>
<g style="mix-blend-mode:multiply">
<path d="M3.28777 5.71925C3.2933 5.7585 3.32812 5.78559 3.3646 5.78061L3.41215 5.77343C3.44808 5.7679 3.47351 5.73141 3.46798 5.69272L3.39888 5.22949C3.39335 5.19024 3.35852 5.16316 3.32204 5.16868L3.27395 5.17587C3.23802 5.1814 3.21259 5.21788 3.21867 5.25658L3.28777 5.71981V5.71925Z" fill="#9B9B9B"/>
</g>
<path d="M3.25774 5.71921C3.26327 5.75735 3.2992 5.78389 3.3379 5.77836L3.38765 5.77117C3.4258 5.76564 3.45287 5.72971 3.44679 5.69102L3.37935 5.23663C3.37383 5.19849 3.3379 5.17196 3.2992 5.17749L3.24946 5.18467C3.21132 5.1902 3.18423 5.22613 3.19031 5.26483L3.2583 5.71921H3.25774Z" fill="url(#paint11_linear_264_432)"/>
<g style="mix-blend-mode:multiply">
<path d="M3.16557 4.89809C3.1711 4.93734 3.20592 4.96443 3.2424 4.9589L3.28994 4.95171C3.32643 4.94619 3.35186 4.9097 3.34633 4.87045L3.27723 4.40722C3.27115 4.36798 3.23687 4.34089 3.19983 4.34642L3.1523 4.3536C3.11582 4.35913 3.09094 4.39562 3.09647 4.43431L3.16557 4.89754V4.89809Z" fill="#9B9B9B"/>
</g>
<path d="M3.13555 4.89792C3.14108 4.93606 3.17756 4.96315 3.2157 4.95707L3.26544 4.94988C3.30359 4.94436 3.33068 4.90842 3.3246 4.86973L3.2566 4.41534C3.25108 4.3772 3.21515 4.35067 3.17701 4.3562L3.12725 4.36394C3.08911 4.36946 3.06258 4.40539 3.06811 4.44354L3.13555 4.89792Z" fill="url(#paint12_linear_264_432)"/>
<g style="mix-blend-mode:multiply">
<path d="M3.04446 4.07918C3.05054 4.11843 3.08482 4.14552 3.12131 4.13999L3.16939 4.1328C3.20587 4.12727 3.23075 4.09134 3.22522 4.0521L3.15612 3.58887C3.1506 3.54962 3.11578 3.52253 3.07929 3.52806L3.03175 3.53525C2.99527 3.54077 2.96984 3.57726 2.97536 3.61595L3.04446 4.07918Z" fill="#9B9B9B"/>
</g>
<path d="M3.0136 4.07914C3.01968 4.11728 3.05561 4.14381 3.09375 4.13829L3.14405 4.13055C3.18219 4.12502 3.20873 4.08909 3.2032 4.05039L3.13521 3.59601C3.12969 3.55787 3.09376 3.53133 3.05506 3.53686L3.0053 3.54405C2.96716 3.55013 2.94009 3.58551 2.94617 3.6242L3.0136 4.07859V4.07914Z" fill="url(#paint13_linear_264_432)"/>
<g style="mix-blend-mode:multiply">
<path d="M2.92143 3.25874C2.92696 3.29799 2.96179 3.32508 2.99827 3.3201L3.0458 3.31291C3.08229 3.30739 3.10772 3.2709 3.10164 3.23221L3.03254 2.76898C3.02646 2.72973 2.99219 2.70264 2.95571 2.70762L2.90816 2.71481C2.87168 2.72033 2.8468 2.75682 2.85233 2.79551L2.92143 3.25874Z" fill="#9B9B9B"/>
</g>
<path d="M2.89098 3.25925C2.89651 3.29739 2.93245 3.32393 2.97115 3.3184L3.02089 3.31121C3.05904 3.30568 3.08613 3.26975 3.08004 3.23106L3.01261 2.77667C3.00653 2.73853 2.97114 2.712 2.93244 2.71753L2.88215 2.72471C2.844 2.73024 2.81747 2.76617 2.82299 2.80486L2.89098 3.25925Z" fill="url(#paint14_linear_264_432)"/>
<defs>
<radialGradient id="paint0_radial_264_432" cx="0" cy="0" r="1" gradientUnits="userSpaceOnUse" gradientTransform="translate(10.2368 8.08481) rotate(4.44) scale(9.08415 5.37524)">
<stop/>
<stop offset="0.03" stop-color="#0C0C0C"/>
<stop offset="0.19" stop-color="#4B4B4B"/>
<stop offset="0.34" stop-color="#828282"/>
<stop offset="0.5" stop-color="#AEAEAE"/>
<stop offset="0.64" stop-color="#D1D1D1"/>
<stop offset="0.78" stop-color="#EAEAEA"/>
<stop offset="0.9" stop-color="#F9F9F9"/>
<stop offset="1" stop-color="white"/>
</radialGradient>
<linearGradient id="paint1_linear_264_432" x1="4.60945" y1="13.2976" x2="3.15941" y2="1.387" gradientUnits="userSpaceOnUse">
<stop offset="0.05" stop-color="white"/>
<stop offset="0.7"/>
<stop offset="0.94" stop-color="white"/>
</linearGradient>
<radialGradient id="paint2_radial_264_432" cx="0" cy="0" r="1" gradientUnits="userSpaceOnUse" gradientTransform="translate(4.36904 6.94185) rotate(-143.481) scale(7.14043)">
<stop offset="0.55" stop-color="white"/>
<stop offset="1"/>
</radialGradient>
<linearGradient id="paint3_linear_264_432" x1="4.1798" y1="12.2922" x2="4.41269" y2="11.792" gradientUnits="userSpaceOnUse">
<stop stop-color="#6E6E6E"/>
<stop offset="0.43" stop-color="#C8C8C8"/>
<stop offset="0.75" stop-color="white"/>
</linearGradient>
<linearGradient id="paint4_linear_264_432" x1="4.05671" y1="11.4721" x2="4.28968" y2="10.9724" gradientUnits="userSpaceOnUse">
<stop stop-color="#6E6E6E"/>
<stop offset="0.43" stop-color="#C8C8C8"/>
<stop offset="0.75" stop-color="white"/>
</linearGradient>
<linearGradient id="paint5_linear_264_432" x1="3.93522" y1="10.6527" x2="4.16811" y2="10.1524" gradientUnits="userSpaceOnUse">
<stop stop-color="#6E6E6E"/>
<stop offset="0.43" stop-color="#C8C8C8"/>
<stop offset="0.75" stop-color="white"/>
</linearGradient>
<linearGradient id="paint6_linear_264_432" x1="3.81255" y1="9.83132" x2="4.04553" y2="9.33165" gradientUnits="userSpaceOnUse">
<stop stop-color="#6E6E6E"/>
<stop offset="0.43" stop-color="#C8C8C8"/>
<stop offset="0.75" stop-color="white"/>
</linearGradient>
<linearGradient id="paint7_linear_264_432" x1="3.68945" y1="9.01066" x2="3.92242" y2="8.51098" gradientUnits="userSpaceOnUse">
<stop stop-color="#6E6E6E"/>
<stop offset="0.43" stop-color="#C8C8C8"/>
<stop offset="0.75" stop-color="white"/>
</linearGradient>
<linearGradient id="paint8_linear_264_432" x1="3.567" y1="8.1911" x2="3.79988" y2="7.69087" gradientUnits="userSpaceOnUse">
<stop stop-color="#6E6E6E"/>
<stop offset="0.43" stop-color="#C8C8C8"/>
<stop offset="0.75" stop-color="white"/>
</linearGradient>
<linearGradient id="paint9_linear_264_432" x1="3.44573" y1="7.36989" x2="3.6787" y2="6.87021" gradientUnits="userSpaceOnUse">
<stop stop-color="#6E6E6E"/>
<stop offset="0.43" stop-color="#C8C8C8"/>
<stop offset="0.75" stop-color="white"/>
</linearGradient>
<linearGradient id="paint10_linear_264_432" x1="3.32425" y1="6.54935" x2="3.55722" y2="6.04968" gradientUnits="userSpaceOnUse">
<stop stop-color="#6E6E6E"/>
<stop offset="0.43" stop-color="#C8C8C8"/>
<stop offset="0.75" stop-color="white"/>
</linearGradient>
<linearGradient id="paint11_linear_264_432" x1="3.20128" y1="5.72869" x2="3.43426" y2="5.22902" gradientUnits="userSpaceOnUse">
<stop stop-color="#6E6E6E"/>
<stop offset="0.43" stop-color="#C8C8C8"/>
<stop offset="0.75" stop-color="white"/>
</linearGradient>
<linearGradient id="paint12_linear_264_432" x1="3.07912" y1="4.9076" x2="3.31201" y2="4.40738" gradientUnits="userSpaceOnUse">
<stop stop-color="#6E6E6E"/>
<stop offset="0.43" stop-color="#C8C8C8"/>
<stop offset="0.75" stop-color="white"/>
</linearGradient>
<linearGradient id="paint13_linear_264_432" x1="2.95713" y1="4.08847" x2="3.1901" y2="3.5888" gradientUnits="userSpaceOnUse">
<stop stop-color="#6E6E6E"/>
<stop offset="0.43" stop-color="#C8C8C8"/>
<stop offset="0.75" stop-color="white"/>
</linearGradient>
<linearGradient id="paint14_linear_264_432" x1="2.83454" y1="3.26878" x2="3.06743" y2="2.76855" gradientUnits="userSpaceOnUse">
<stop stop-color="#6E6E6E"/>
<stop offset="0.43" stop-color="#C8C8C8"/>
<stop offset="0.75" stop-color="white"/>
</linearGradient>
</defs>
</svg>
