<svg width="146" height="44" viewBox="0 0 146 44" fill="none" xmlns="http://www.w3.org/2000/svg">
<path d="M140.624 43.0862H6.17167C3.21142 43.0862 0.796875 40.661 0.796875 37.7044V5.39067C0.796875 2.42652 3.2189 0.00878906 6.17167 0.00878906H140.624C143.584 0.00878906 145.999 2.434 145.999 5.39067V37.7044C146.006 40.661 143.584 43.0862 140.624 43.0862Z" fill="white"/>
<path d="M140.624 0.860796C143.113 0.860796 145.139 2.88929 145.139 5.38187V37.6956C145.139 40.1882 143.113 42.2167 140.624 42.2167H6.17167C3.68237 42.2167 1.65654 40.1882 1.65654 37.6956V5.38936C1.65654 2.89678 3.68237 0.868283 6.17167 0.868283H140.624V0.860796ZM140.624 0H6.17167C3.21142 0 0.796875 2.42521 0.796875 5.38187V37.6956C0.796875 40.6597 3.2189 43.0775 6.17167 43.0775H140.624C143.584 43.0775 145.999 40.6522 145.999 37.6956V5.38936C146.006 2.42521 143.584 0 140.624 0Z" fill="black"/>
<path d="M74.0879 23.4298C71.5612 23.4298 69.498 25.3535 69.498 28.0108C69.498 30.6456 71.5612 32.5917 74.0879 32.5917C76.6146 32.5917 78.6778 30.6456 78.6778 28.0108C78.6778 25.3535 76.6146 23.4298 74.0879 23.4298ZM74.0879 30.7878C72.705 30.7878 71.5089 29.6425 71.5089 28.0108C71.5089 26.364 72.705 25.2337 74.0879 25.2337C75.4708 25.2337 76.6669 26.364 76.6669 28.0108C76.6669 29.6425 75.4708 30.7878 74.0879 30.7878ZM64.0709 23.4298C61.5442 23.4298 59.481 25.3535 59.481 28.0108C59.481 30.6456 61.5442 32.5917 64.0709 32.5917C66.5976 32.5917 68.6608 30.6456 68.6608 28.0108C68.6608 25.3535 66.5976 23.4298 64.0709 23.4298ZM64.0709 30.7878C62.688 30.7878 61.4919 29.6425 61.4919 28.0108C61.4919 26.364 62.688 25.2337 64.0709 25.2337C65.4538 25.2337 66.6499 26.364 66.6499 28.0108C66.6499 29.6425 65.4538 30.7878 64.0709 30.7878ZM52.1477 24.837V26.7832H56.7899C56.6478 27.876 56.289 28.6769 55.7358 29.2308C55.0631 29.9045 54.0016 30.653 52.1477 30.653C49.2921 30.653 47.0495 28.3476 47.0495 25.4808C47.0495 22.6214 49.2846 20.3085 52.1477 20.3085C53.6876 20.3085 54.8164 20.9148 55.6461 21.6932L57.0141 20.3234C55.8555 19.2156 54.3081 18.3623 52.1477 18.3623C48.2306 18.3623 44.9414 21.5585 44.9414 25.4733C44.9414 29.3955 48.2306 32.5842 52.1477 32.5842C54.2632 32.5842 55.8555 31.8881 57.1038 30.5857C58.3896 29.2982 58.7858 27.4943 58.7858 26.0421C58.7858 25.593 58.7484 25.1739 58.6811 24.8295H52.1477V24.837ZM100.887 26.349C100.506 25.3236 99.3472 23.4373 96.97 23.4373C94.6153 23.4373 92.6567 25.2936 92.6567 28.0182C92.6567 30.5857 94.6003 32.5992 97.1943 32.5992C99.2874 32.5992 100.506 31.3117 101.007 30.5707L99.4444 29.5303C98.9211 30.2937 98.2109 30.7953 97.1943 30.7953C96.1701 30.7953 95.445 30.3237 94.9741 29.4105L101.089 26.8805L100.887 26.349ZM94.6452 27.876C94.5929 26.1095 96.0132 25.2038 97.0373 25.2038C97.8372 25.2038 98.51 25.6005 98.7342 26.1769L94.6452 27.876ZM89.674 32.3148H91.6849V18.8488H89.674V32.3148ZM86.3849 24.4553H86.3176C85.8691 23.9163 85.0019 23.4298 83.9105 23.4298C81.6231 23.4298 79.53 25.4433 79.53 28.0257C79.53 30.5932 81.6231 32.5917 83.9105 32.5917C85.0019 32.5917 85.8691 32.1052 86.3176 31.5513H86.3849V32.21C86.3849 33.9615 85.4505 34.8972 83.9404 34.8972C82.707 34.8972 81.9445 34.0139 81.638 33.2654L79.8888 33.9914C80.3896 35.2041 81.7277 36.7011 83.9404 36.7011C86.2952 36.7011 88.2911 35.3163 88.2911 31.933V23.7068H86.3849V24.4553ZM84.075 30.7878C82.6921 30.7878 81.5259 29.6276 81.5259 28.0257C81.5259 26.4089 82.6846 25.2337 84.075 25.2337C85.443 25.2337 86.5194 26.4164 86.5194 28.0257C86.5194 29.6276 85.443 30.7878 84.075 30.7878ZM110.299 18.8488H105.492V32.3148H107.495V27.2098H110.299C112.526 27.2098 114.709 25.6005 114.709 23.0256C114.709 20.4507 112.526 18.8488 110.299 18.8488ZM110.351 25.3385H107.495V20.7202H110.351C111.853 20.7202 112.706 21.9627 112.706 23.0256C112.706 24.0735 111.853 25.3385 110.351 25.3385ZM122.76 23.4073C121.31 23.4073 119.8 24.0511 119.179 25.4658L120.958 26.2143C121.34 25.4658 122.05 25.2263 122.79 25.2263C123.829 25.2263 124.883 25.8475 124.898 26.9553V27.0976C124.532 26.888 123.754 26.5811 122.805 26.5811C120.884 26.5811 118.933 27.6365 118.933 29.6126C118.933 31.4165 120.51 32.5767 122.274 32.5767C123.627 32.5767 124.367 31.9704 124.838 31.2593H124.905V32.2998H126.842V27.135C126.842 24.7397 125.055 23.4073 122.76 23.4073ZM122.513 30.7878C121.856 30.7878 120.936 30.4584 120.936 29.6425C120.936 28.6021 122.08 28.2054 123.067 28.2054C123.949 28.2054 124.367 28.3925 124.898 28.6545C124.749 29.9045 123.672 30.7878 122.513 30.7878ZM133.898 23.6993L131.596 29.5377H131.529L129.144 23.6993H126.984L130.564 31.8582L128.524 36.3942H130.617L136.134 23.6993H133.898ZM115.823 32.3148H117.826V18.8488H115.823V32.3148Z" fill="#181818"/>
<path d="M12.0204 8.12107C11.7064 8.45042 11.5195 8.9669 11.5195 9.63309V33.4511C11.5195 34.1172 11.7064 34.6337 12.0204 34.9631L12.1026 35.0379L25.4312 21.6918V21.5346V21.3774L12.1026 8.03125L12.0204 8.12107Z" fill="url(#paint0_linear_152_2315)"/>
<path d="M29.871 26.1531L25.4307 21.7069V21.5497V21.3925L29.871 16.9463L29.9682 17.0062L35.2309 20.0003C36.7335 20.8536 36.7335 22.2533 35.2309 23.1141L29.9682 26.1082L29.871 26.1531Z" fill="url(#paint1_linear_152_2315)"/>
<path d="M29.9698 26.093L25.4248 21.542L12.0215 34.963C12.5149 35.487 13.3372 35.5543 14.2566 35.0304L29.9698 26.093Z" fill="url(#paint2_linear_152_2315)"/>
<path d="M29.9698 16.9916L14.2566 8.05427C13.3372 7.5303 12.5149 7.59767 12.0215 8.12164L25.4248 21.5426L29.9698 16.9916Z" fill="url(#paint3_linear_152_2315)"/>
<path opacity="0.2" d="M29.8727 25.9971L14.2566 34.882C13.382 35.3761 12.6046 35.3461 12.1037 34.897L12.0215 34.9793L12.1037 35.0542C12.6046 35.5033 13.382 35.5407 14.2566 35.0392L29.9698 26.1019L29.8727 25.9971Z" fill="#181818"/>
<path opacity="0.12" d="M12.0204 34.8069C11.7064 34.4776 11.5195 33.9611 11.5195 33.2949V33.4521C11.5195 34.1183 11.7064 34.6348 12.0204 34.9641L12.1026 34.8818L12.0204 34.8069Z" fill="#181818"/>
<path opacity="0.12" d="M35.2319 22.9417L29.8721 25.9957L29.9692 26.093L35.2319 23.0989C35.9869 22.6723 36.3607 22.1109 36.3607 21.542C36.3009 22.051 35.9122 22.5525 35.2319 22.9417Z" fill="#181818"/>
<path opacity="0.25" d="M14.2555 8.21079L35.2314 20.1422C35.9117 20.5315 36.2929 21.033 36.3602 21.542C36.3602 20.9806 35.9865 20.4117 35.2314 19.985L14.2555 8.0536C12.753 7.20029 11.5195 7.91139 11.5195 9.63299V9.79018C11.527 8.06858 12.753 7.35748 14.2555 8.21079Z" fill="white"/>
<path d="M46.0922 15.3764H45.2998V13.2132H45.9277C46.4884 12.7341 46.7575 11.9108 46.75 10.7431V7.54688H51.0558V13.2132H51.7735V15.3764H50.9811V14.0066H46.0847V15.3764H46.0922ZM47.5798 10.7356C47.5947 11.7611 47.3854 12.5844 46.9668 13.2057H50.2261V8.33283H47.5723V10.7356H47.5798Z" fill="#181818"/>
<path d="M58.2467 13.1676C57.6113 13.8188 56.8264 14.1482 55.877 14.1482C54.9351 14.1482 54.1427 13.8188 53.5148 13.1676C52.8794 12.5164 52.5654 11.7155 52.5654 10.7723C52.5654 9.82918 52.8794 9.02826 53.5148 8.37705C54.1502 7.72583 54.9351 7.39648 55.877 7.39648C56.8114 7.39648 57.6038 7.72583 58.2393 8.37705C58.8747 9.03575 59.1961 9.82918 59.1961 10.7723C59.2036 11.7155 58.8821 12.5164 58.2467 13.1676ZM54.1278 12.6287C54.6062 13.1152 55.1893 13.3547 55.8845 13.3547C56.5722 13.3547 57.1628 13.1152 57.6412 12.6287C58.1196 12.1421 58.3589 11.5283 58.3589 10.7723C58.3589 10.0238 58.1196 9.40252 57.6412 8.91598C57.1628 8.42944 56.5797 8.18992 55.8845 8.18992C55.1968 8.18992 54.6062 8.42944 54.1278 8.91598C53.6494 9.40252 53.4101 10.0163 53.4101 10.7723C53.4101 11.5283 53.6568 12.1421 54.1278 12.6287Z" fill="#181818"/>
<path d="M63.375 14.1482C62.4256 14.1482 61.6258 13.8263 60.9829 13.1826C60.34 12.5388 60.0186 11.7379 60.0186 10.7723C60.0186 9.80673 60.34 9.00581 60.9829 8.36208C61.6258 7.71835 62.4256 7.39648 63.375 7.39648C64.3468 7.39648 65.1392 7.74829 65.7447 8.4519L65.1691 9.01329C64.728 8.46687 64.13 8.18992 63.375 8.18992C62.6723 8.18992 62.0743 8.42945 61.5959 8.90102C61.11 9.38007 60.8707 10.0013 60.8707 10.7723C60.8707 11.5433 61.11 12.1646 61.5959 12.6436C62.0818 13.1227 62.6723 13.3547 63.375 13.3547C64.1524 13.3547 64.8103 13.0403 65.356 12.4191L65.9316 12.9954C65.64 13.3472 65.2663 13.6317 64.8252 13.8413C64.3842 14.0434 63.8983 14.1482 63.375 14.1482Z" fill="#181818"/>
<path d="M69.2886 14.0066H68.4588V8.34031H66.6572V7.54688H71.0902V8.34031H69.2886V14.0066Z" fill="#181818"/>
<path d="M76.7866 7.53874L74.3422 12.988C74.0058 13.759 73.5049 14.1407 72.8396 14.1407C72.6378 14.1407 72.4285 14.0958 72.1967 13.9985L72.4135 13.2275C72.5556 13.3024 72.6976 13.3473 72.8471 13.3473C73.0415 13.3473 73.191 13.3098 73.2956 13.235C73.4003 13.1601 73.4975 13.0254 73.5872 12.8233L73.8189 12.3068L71.6436 7.53125H72.6154L74.2076 11.2439H74.245L75.8073 7.53125H76.7866V7.53874Z" fill="#181818"/>
<path d="M77.7285 14.0066V7.54688H82.4006V14.0066H81.5709V8.34031H78.5583V14.0066H77.7285Z" fill="#181818"/>
<path d="M83.873 14.0066V7.54688H84.7028V10.3164H87.9322V7.54688H88.7619V14.0066H87.9322V11.0874H84.7028V14.0066H83.873Z" fill="#181818"/>
<path d="M95.5123 13.1676C94.8769 13.8188 94.092 14.1482 93.1426 14.1482C92.2007 14.1482 91.4084 13.8188 90.7804 13.1676C90.145 12.5164 89.8311 11.7155 89.8311 10.7723C89.8311 9.82918 90.145 9.02826 90.7804 8.37705C91.4158 7.72583 92.2007 7.39648 93.1426 7.39648C94.0771 7.39648 94.8695 7.72583 95.5049 8.37705C96.1403 9.03575 96.4617 9.82918 96.4617 10.7723C96.4617 11.7155 96.1477 12.5164 95.5123 13.1676ZM91.3934 12.6287C91.8718 13.1152 92.4549 13.3547 93.1501 13.3547C93.8453 13.3547 94.4284 13.1152 94.9068 12.6287C95.3853 12.1421 95.6245 11.5283 95.6245 10.7723C95.6245 10.0238 95.3853 9.40252 94.9068 8.91598C94.4284 8.42944 93.8453 8.18992 93.1501 8.18992C92.4549 8.18992 91.8718 8.42944 91.3934 8.91598C90.915 9.40252 90.6758 10.0163 90.6758 10.7723C90.6758 11.5283 90.915 12.1421 91.3934 12.6287Z" fill="#181818"/>
<path d="M99.8545 14.0066V7.54688H102.187C102.695 7.54688 103.129 7.71155 103.502 8.04839C103.869 8.38523 104.056 8.8044 104.056 9.30591C104.056 9.6128 103.973 9.88227 103.816 10.1218C103.659 10.3538 103.443 10.5335 103.181 10.6532V10.6907C103.502 10.7955 103.764 10.9826 103.966 11.2521C104.168 11.5141 104.272 11.8209 104.272 12.1727C104.272 12.7042 104.078 13.1383 103.689 13.4902C103.301 13.842 102.845 14.0141 102.314 14.0141H99.8545V14.0066ZM100.684 10.3164H102.187C102.501 10.3164 102.747 10.2116 102.942 10.002C103.129 9.79245 103.226 9.56789 103.226 9.32088C103.226 9.07386 103.136 8.84931 102.949 8.64721C102.77 8.4451 102.523 8.34031 102.224 8.34031H100.684V10.3164ZM100.684 13.2132H102.351C102.673 13.2132 102.927 13.1009 103.129 12.8764C103.331 12.6518 103.428 12.4123 103.428 12.1428C103.428 11.8808 103.323 11.6338 103.121 11.4167C102.919 11.1997 102.65 11.0874 102.321 11.0874H100.692V13.2132H100.684Z" fill="#181818"/>
<defs>
<linearGradient id="paint0_linear_152_2315" x1="24.2458" y1="9.38226" x2="6.17061" y2="27.4337" gradientUnits="userSpaceOnUse">
<stop stop-color="#4699D0"/>
<stop offset="0.00657445" stop-color="#459AD1"/>
<stop offset="0.2601" stop-color="#1BBAEB"/>
<stop offset="0.5122" stop-color="#4EC3ED"/>
<stop offset="0.7604" stop-color="#6AC8E7"/>
<stop offset="1" stop-color="#72CAE5"/>
</linearGradient>
<linearGradient id="paint1_linear_152_2315" x1="37.19" y1="21.544" x2="11.1633" y2="21.544" gradientUnits="userSpaceOnUse">
<stop stop-color="#FFE103"/>
<stop offset="0.4087" stop-color="#FDBD00"/>
<stop offset="0.7754" stop-color="#F8A500"/>
<stop offset="1" stop-color="#F69B00"/>
</linearGradient>
<linearGradient id="paint2_linear_152_2315" x1="27.503" y1="24.0152" x2="2.99159" y2="48.4944" gradientUnits="userSpaceOnUse">
<stop stop-color="#E93A3D"/>
<stop offset="1" stop-color="#C41463"/>
</linearGradient>
<linearGradient id="paint3_linear_152_2315" x1="8.64785" y1="0.191937" x2="19.5933" y2="11.1229" gradientUnits="userSpaceOnUse">
<stop stop-color="#33A071"/>
<stop offset="0.0685" stop-color="#30A772"/>
<stop offset="0.4762" stop-color="#54B867"/>
<stop offset="0.8009" stop-color="#6BBE66"/>
<stop offset="1" stop-color="#72C066"/>
</linearGradient>
</defs>
</svg>
