<svg width="50" height="49" viewBox="0 0 50 49" fill="none" xmlns="http://www.w3.org/2000/svg">
<circle cx="24.5349" cy="24" r="24" fill="#E74A42"/>
<g clip-path="url(#clip0_754_11244)">
<path d="M38.8897 23.541H24.6817V28.8858H32.3917C31.6899 30.2257 30.7909 31.234 29.7145 31.8864C28.5361 32.6009 27.0611 32.9632 25.331 32.9632C22.6655 32.9632 20.3939 32.0774 18.5798 30.3307C16.7677 28.5863 15.8491 26.4284 15.8491 23.9171C15.8491 21.4904 16.7338 19.4 18.4787 17.7038C20.225 16.0063 22.424 15.1457 25.0147 15.1457C27.9942 15.1457 30.642 16.3363 32.8848 18.6849L33.0739 18.8831L37.0994 14.9425L36.9226 14.7533C35.2407 12.953 33.4931 11.6633 31.7288 10.92C29.6467 10.044 27.3786 9.59985 24.9878 9.59985C22.7004 9.59985 20.5967 10.0026 18.7354 10.797C16.8716 11.5924 15.2011 12.8018 13.7707 14.3908C12.5651 15.7263 11.6477 17.2007 11.0444 18.7733C10.4411 20.3453 10.135 22.0578 10.135 23.8625C10.135 26.4955 10.7966 28.9833 12.1018 31.2576C13.4079 33.5346 15.209 35.3139 17.4546 36.5459C19.6968 37.776 22.2808 38.3999 25.1358 38.3999C27.8076 38.3999 30.1724 37.8278 32.1639 36.6996C34.1557 35.5714 35.7999 33.9135 37.0506 31.7716C38.301 29.6301 38.935 27.3323 38.935 24.942L38.8897 23.541Z" fill="white"/>
</g>
<defs>
<clipPath id="clip0_754_11244">
<rect width="28.8" height="28.8" fill="white" transform="translate(10.135 9.59985)"/>
</clipPath>
</defs>
</svg>
