<svg width="25" height="18" viewBox="0 0 25 18" fill="none" xmlns="http://www.w3.org/2000/svg">
<path style="mix-blend-mode:multiply" d="M24.9873 10.9605C24.6708 15.0359 18.8238 17.9048 11.9272 17.3693C5.03055 16.8338 -0.303081 13.0956 0.0133853 9.02094C0.329852 4.94556 6.17689 2.07663 13.0728 2.61214C19.9688 3.14764 25.3031 6.88513 24.9866 10.9605H24.9873Z" fill="url(#paint0_radial_121_4611)"/>
<path style="mix-blend-mode:multiply" opacity="0.5" d="M6.62446 16.6491L4.18739 16.864L1.85742 1.23414L4.29449 1.01855L6.62446 16.6491Z" fill="url(#paint1_linear_121_4611)"/>
<mask id="mask0_121_4611" style="mask-type:luminance" maskUnits="userSpaceOnUse" x="1" y="1" width="20" height="13">
<path d="M20.2404 10.5851L2.40705 13.3297L1.05273 4.23645L19.1943 1.44629L17.641 6.13179L20.2404 10.5851Z" fill="white"/>
</mask>
<g mask="url(#mask0_121_4611)">
<path d="M19.1522 -1.04994L1.35547 1.83887L3.56429 15.4464L21.361 12.5576L19.1522 -1.04994Z" fill="#F1F1F1"/>
<path d="M1.875 5.03906L2.20667 7.08089L6.08857 6.45073L1.875 5.03906Z" fill="#2950BE"/>
<path d="M3.65918 2.16999L3.78354 3.61067L9.24916 5.45489L8.50222 0.856445L3.65918 2.16999Z" fill="#2950BE"/>
<path d="M8.17821 6.09661L1.69824 3.94629L1.81778 4.68218L6.7548 6.32808L8.17821 6.09661Z" fill="#C8001E"/>
<path d="M14.541 8.28226L21.021 10.4326L20.9014 9.69737L15.9644 8.05078L14.541 8.28226Z" fill="#C8001E"/>
<path d="M3.04456 12.2465L2.71289 10.2054L6.59479 9.5752L3.04456 12.2465Z" fill="#2950BE"/>
<path d="M5.58926 14.8428L5.30664 12.9979L9.90785 9.51953L10.7329 14.6037L5.58926 14.8428Z" fill="#2950BE"/>
<path d="M8.6551 9.2373L3.22266 13.321L4.6122 13.0964L9.85671 9.17304L9.83598 9.0459L8.6551 9.2373Z" fill="#C8001E"/>
<path d="M19.6772 2.14844L20.0088 4.18958L16.127 4.82044L19.6772 2.14844Z" fill="#2950BE"/>
<path d="M18.692 0.0597663L17.4151 1.39749L12.8139 4.87587L12.0068 -0.0957031L18.692 0.0597663Z" fill="#2950BE"/>
<path d="M19.4944 1.06152L18.1581 1.2778L12.877 5.22949L12.8935 5.33521L14.1145 5.13759L19.4944 1.06152Z" fill="#C8001E"/>
<path d="M20.8467 9.35629L20.5157 7.31445L16.6338 7.94462L20.8467 9.35629Z" fill="#2950BE"/>
<path d="M19.4893 11.942L18.9386 10.7846L13.4736 8.94043L14.2296 13.599L19.4893 11.942Z" fill="#2950BE"/>
<path d="M11.3829 0.242171L9.11719 0.610352L11.2991 14.0375L13.5648 13.6693L11.3829 0.242171Z" fill="#C8001E"/>
<path d="M19.5379 4.65176L2.7793 7.37207L3.14708 9.63784L19.9057 6.91753L19.5379 4.65176Z" fill="#C8001E"/>
</g>
<path style="mix-blend-mode:screen" d="M3.65494 -0.000486447L3.42188 0.0341797L6.01389 17.461L6.24696 17.4263L3.65494 -0.000486447Z" fill="url(#paint2_radial_121_4611)"/>
<g style="mix-blend-mode:multiply">
<path d="M5.08314 15.3522C5.09005 15.4013 5.13358 15.4351 5.17918 15.4289L5.23861 15.4199C5.28422 15.413 5.316 15.3674 5.3084 15.319L5.22203 14.74C5.21512 14.6909 5.17159 14.6571 5.12599 14.664L5.06587 14.673C5.02026 14.6799 4.98917 14.7248 4.99608 14.7738L5.08245 15.3529L5.08314 15.3522Z" fill="#9B9B9B"/>
</g>
<path d="M5.04586 15.3519C5.05277 15.3996 5.09768 15.4327 5.14605 15.4258L5.20825 15.4168C5.25592 15.4099 5.28909 15.365 5.28219 15.3167L5.19787 14.7487C5.19027 14.701 5.14605 14.6678 5.09768 14.6747L5.03481 14.6837C4.98713 14.6906 4.95396 14.7355 4.96087 14.7839L5.04586 15.3519Z" fill="url(#paint3_linear_121_4611)"/>
<g style="mix-blend-mode:multiply">
<path d="M4.92884 14.3275C4.93575 14.3766 4.97928 14.4104 5.02488 14.4035L5.08431 14.3945C5.12992 14.3876 5.1617 14.342 5.1541 14.2936L5.06773 13.7146C5.06013 13.6655 5.01728 13.6317 4.97098 13.6386L4.91157 13.6476C4.86597 13.6545 4.83487 13.7001 4.84178 13.7485L4.92815 14.3275H4.92884Z" fill="#9B9B9B"/>
</g>
<path d="M4.89254 14.3265C4.89945 14.3742 4.94505 14.4073 4.99204 14.4004L5.05423 14.3915C5.10191 14.3845 5.13576 14.3396 5.12885 14.2913L5.04386 13.7233C5.03695 13.6756 4.99204 13.6424 4.94367 13.6493L4.88149 13.659C4.83381 13.6659 4.80064 13.7108 4.80755 13.7592L4.89254 14.3272V14.3265Z" fill="url(#paint4_linear_121_4611)"/>
<g style="mix-blend-mode:multiply">
<path d="M4.77776 13.3021C4.78536 13.3512 4.8282 13.385 4.8738 13.3781L4.93392 13.3691C4.97953 13.3622 5.01062 13.3166 5.00371 13.2682L4.91734 12.6892C4.90974 12.6401 4.86689 12.6063 4.82129 12.6132L4.76118 12.6222C4.71558 12.6291 4.68448 12.6747 4.69139 12.7231L4.77776 13.3021Z" fill="#9B9B9B"/>
</g>
<path d="M4.74064 13.302C4.74824 13.3496 4.79315 13.3828 4.84013 13.3759L4.90301 13.3662C4.95068 13.3593 4.98386 13.3144 4.97695 13.266L4.89265 12.698C4.88574 12.6504 4.84083 12.6165 4.79246 12.6241L4.73026 12.6331C4.68259 12.64 4.64874 12.6849 4.65634 12.7333L4.74064 13.3013V13.302Z" fill="url(#paint5_linear_121_4611)"/>
<g style="mix-blend-mode:multiply">
<path d="M4.62542 12.2753C4.63233 12.3243 4.67585 12.3582 4.72146 12.3513L4.78089 12.3423C4.82649 12.3354 4.85828 12.2905 4.85068 12.2414L4.76431 11.6624C4.7567 11.6133 4.71385 11.5795 4.66825 11.5857L4.60884 11.5947C4.56323 11.6016 4.53214 11.6472 4.53905 11.6956L4.62542 12.2746V12.2753Z" fill="#9B9B9B"/>
</g>
<path d="M4.58785 12.2747C4.59476 12.3224 4.63967 12.3556 4.68804 12.3487L4.75022 12.3397C4.79859 12.3328 4.83176 12.2879 4.82416 12.2395L4.73986 11.6715C4.73226 11.6238 4.68804 11.5907 4.63968 11.5976L4.57679 11.6066C4.52911 11.6135 4.49595 11.6584 4.50286 11.7068L4.58785 12.2747Z" fill="url(#paint6_linear_121_4611)"/>
<g style="mix-blend-mode:multiply">
<path d="M4.47157 11.2499C4.47917 11.299 4.52202 11.3328 4.56832 11.3259L4.62773 11.3169C4.67403 11.31 4.70512 11.2644 4.69752 11.216L4.61184 10.637C4.60424 10.5879 4.56141 10.5541 4.51511 10.5603L4.45568 10.5693C4.41007 10.5762 4.37829 10.6211 4.38589 10.6702L4.47226 11.2492L4.47157 11.2499Z" fill="#9B9B9B"/>
</g>
<path d="M4.43453 11.2503C4.44144 11.298 4.48704 11.3312 4.53472 11.3243L4.5969 11.3146C4.64458 11.3077 4.67844 11.2628 4.67153 11.2151L4.58654 10.6471C4.57964 10.5994 4.53403 10.5663 4.48636 10.5732L4.42416 10.5822C4.37648 10.5891 4.34262 10.634 4.34953 10.6823L4.43453 11.2503Z" fill="url(#paint7_linear_121_4611)"/>
<g style="mix-blend-mode:multiply">
<path d="M4.31849 10.2245C4.32609 10.2736 4.36894 10.3074 4.41455 10.3005L4.47396 10.2915C4.51957 10.2846 4.55066 10.2397 4.54375 10.1907L4.45738 9.61161C4.45047 9.56255 4.40695 9.5287 4.36134 9.53492L4.30122 9.5439C4.25561 9.55081 4.22452 9.59641 4.23143 9.64478L4.3178 10.2238L4.31849 10.2245Z" fill="#9B9B9B"/>
</g>
<path d="M4.28165 10.2247C4.28925 10.2723 4.33418 10.3055 4.38186 10.2986L4.44473 10.2889C4.49241 10.282 4.52558 10.2371 4.51867 10.1887L4.43368 9.62074C4.42677 9.57307 4.38184 9.5399 4.33348 9.54681L4.2713 9.55579C4.22362 9.56339 4.18976 9.60762 4.19736 9.65598L4.28165 10.224V10.2247Z" fill="url(#paint8_linear_121_4611)"/>
<g style="mix-blend-mode:multiply">
<path d="M4.16574 9.19843C4.17265 9.24749 4.21619 9.28134 4.2618 9.27513L4.3219 9.26614C4.36751 9.25923 4.3986 9.21363 4.39169 9.16526L4.30532 8.58622C4.29772 8.53716 4.25489 8.50331 4.20928 8.50952L4.14985 8.51851C4.10425 8.52542 4.07315 8.57102 4.08006 8.61939L4.16643 9.19843H4.16574Z" fill="#9B9B9B"/>
</g>
<path d="M4.12915 9.19857C4.13606 9.24625 4.18097 9.27942 4.22934 9.27251L4.29154 9.26283C4.33922 9.25592 4.37239 9.21101 4.36548 9.16333L4.28116 8.59535C4.27356 8.54768 4.22865 8.51451 4.18167 8.52142L4.11879 8.5304C4.07112 8.53731 4.03795 8.58222 4.04486 8.63059L4.12915 9.19857Z" fill="url(#paint9_linear_121_4611)"/>
<g style="mix-blend-mode:multiply">
<path d="M4.01328 8.17304C4.02088 8.2221 4.06371 8.25595 4.11001 8.24974L4.16944 8.24075C4.21504 8.23384 4.24614 8.18824 4.23923 8.13987L4.15286 7.56083C4.14526 7.51177 4.1024 7.47792 4.05611 7.48413L3.99669 7.49312C3.95109 7.50003 3.9193 7.54563 3.92691 7.594L4.01259 8.17304H4.01328Z" fill="#9B9B9B"/>
</g>
<path d="M3.97652 8.17221C3.98343 8.21988 4.02834 8.25305 4.07671 8.24614L4.13891 8.23716C4.18659 8.23025 4.21974 8.18534 4.21283 8.13697L4.12784 7.56899C4.12093 7.52131 4.07602 7.48814 4.02766 7.49505L3.96547 7.50472C3.9178 7.51163 3.88463 7.55655 3.89154 7.60423L3.97652 8.17221Z" fill="url(#paint10_linear_121_4611)"/>
<g style="mix-blend-mode:multiply">
<path d="M3.86093 7.14711C3.86784 7.19617 3.91137 7.23003 3.95697 7.22381L4.0164 7.21483C4.06132 7.20792 4.0931 7.16232 4.08619 7.11395L3.99982 6.53491C3.99291 6.48585 3.94937 6.45199 3.90377 6.4589L3.84366 6.46788C3.79875 6.47479 3.76696 6.5204 3.77456 6.56877L3.86093 7.1478V7.14711Z" fill="#9B9B9B"/>
</g>
<path d="M3.82365 7.14682C3.83056 7.19449 3.87547 7.22766 3.92383 7.22075L3.98603 7.21177C4.03371 7.20486 4.06755 7.15995 4.05995 7.11158L3.97566 6.54359C3.96875 6.49592 3.92384 6.46275 3.87547 6.46966L3.81329 6.47864C3.76561 6.48555 3.73175 6.53047 3.73935 6.57883L3.82434 7.14682H3.82365Z" fill="url(#paint11_linear_121_4611)"/>
<g style="mix-blend-mode:multiply">
<path d="M3.70843 6.12213C3.71534 6.17119 3.75886 6.20505 3.80446 6.19814L3.8639 6.18915C3.9095 6.18224 3.94129 6.13664 3.93438 6.08758L3.848 5.50854C3.8404 5.45948 3.79755 5.42563 3.75126 5.43254L3.69184 5.44152C3.64624 5.44843 3.61514 5.49403 3.62205 5.5424L3.70843 6.12144V6.12213Z" fill="#9B9B9B"/>
</g>
<path d="M3.67115 6.1224C3.67806 6.17008 3.72366 6.20394 3.77133 6.19634L3.83351 6.18735C3.88119 6.18044 3.91505 6.13553 3.90745 6.08716L3.82246 5.51918C3.81556 5.4715 3.77065 5.43834 3.72297 5.44525L3.66077 5.45492C3.61309 5.46183 3.57994 5.50674 3.58685 5.55442L3.67115 6.1224Z" fill="url(#paint12_linear_121_4611)"/>
<g style="mix-blend-mode:multiply">
<path d="M3.55607 5.09702C3.56367 5.14608 3.60652 5.17994 3.65212 5.17303L3.71223 5.16405C3.75783 5.15714 3.78893 5.11223 3.78202 5.06317L3.69564 4.48413C3.68873 4.43507 3.64521 4.40121 3.59961 4.40812L3.54017 4.4171C3.49457 4.42401 3.46278 4.46962 3.46969 4.51799L3.55607 5.09702Z" fill="#9B9B9B"/>
</g>
<path d="M3.51798 5.09673C3.52558 5.1444 3.57049 5.17757 3.61817 5.17066L3.68104 5.16099C3.72872 5.15408 3.76189 5.10916 3.75498 5.0608L3.66999 4.49281C3.66308 4.44514 3.61817 4.41197 3.56981 4.41888L3.50761 4.42786C3.45993 4.43546 3.42608 4.47968 3.43368 4.52805L3.51798 5.09604V5.09673Z" fill="url(#paint13_linear_121_4611)"/>
<g style="mix-blend-mode:multiply">
<path d="M3.40276 4.07147C3.40967 4.12053 3.45321 4.15439 3.49882 4.14817L3.55823 4.13919C3.60384 4.13228 3.63562 4.08668 3.62802 4.03831L3.54165 3.45927C3.53405 3.41021 3.49122 3.37635 3.44561 3.38257L3.38618 3.39155C3.34058 3.39846 3.30948 3.44407 3.31639 3.49244L3.40276 4.07147Z" fill="#9B9B9B"/>
</g>
<path d="M3.3652 4.07162C3.37211 4.1193 3.41703 4.15247 3.4654 4.14556L3.52758 4.13657C3.57526 4.12966 3.60912 4.08475 3.60152 4.03638L3.51722 3.4684C3.50962 3.42072 3.46539 3.38756 3.41702 3.39447L3.35415 3.40345C3.30647 3.41036 3.2733 3.45527 3.28021 3.50364L3.3652 4.07162Z" fill="url(#paint14_linear_121_4611)"/>
<defs>
<radialGradient id="paint0_radial_121_4611" cx="0" cy="0" r="1" gradientUnits="userSpaceOnUse" gradientTransform="translate(12.5458 10.105) rotate(4.44) scale(11.3552 6.71905)">
<stop/>
<stop offset="0.03" stop-color="#0C0C0C"/>
<stop offset="0.19" stop-color="#4B4B4B"/>
<stop offset="0.34" stop-color="#828282"/>
<stop offset="0.5" stop-color="#AEAEAE"/>
<stop offset="0.64" stop-color="#D1D1D1"/>
<stop offset="0.78" stop-color="#EAEAEA"/>
<stop offset="0.9" stop-color="#F9F9F9"/>
<stop offset="1" stop-color="white"/>
</radialGradient>
<linearGradient id="paint1_linear_121_4611" x1="5.5123" y1="16.6201" x2="3.69975" y2="1.7318" gradientUnits="userSpaceOnUse">
<stop offset="0.05" stop-color="white"/>
<stop offset="0.7"/>
<stop offset="0.94" stop-color="white"/>
</linearGradient>
<radialGradient id="paint2_radial_121_4611" cx="0" cy="0" r="1" gradientUnits="userSpaceOnUse" gradientTransform="translate(5.2113 8.67732) rotate(-143.481) scale(8.92553)">
<stop offset="0.55" stop-color="white"/>
<stop offset="1"/>
</radialGradient>
<linearGradient id="paint3_linear_121_4611" x1="4.97475" y1="15.3638" x2="5.26586" y2="14.7385" gradientUnits="userSpaceOnUse">
<stop stop-color="#6E6E6E"/>
<stop offset="0.43" stop-color="#C8C8C8"/>
<stop offset="0.75" stop-color="white"/>
</linearGradient>
<linearGradient id="paint4_linear_121_4611" x1="4.82137" y1="14.3387" x2="5.11259" y2="13.7141" gradientUnits="userSpaceOnUse">
<stop stop-color="#6E6E6E"/>
<stop offset="0.43" stop-color="#C8C8C8"/>
<stop offset="0.75" stop-color="white"/>
</linearGradient>
<linearGradient id="paint5_linear_121_4611" x1="4.66951" y1="13.3144" x2="4.96063" y2="12.6891" gradientUnits="userSpaceOnUse">
<stop stop-color="#6E6E6E"/>
<stop offset="0.43" stop-color="#C8C8C8"/>
<stop offset="0.75" stop-color="white"/>
</linearGradient>
<linearGradient id="paint6_linear_121_4611" x1="4.51667" y1="12.2867" x2="4.80789" y2="11.6621" gradientUnits="userSpaceOnUse">
<stop stop-color="#6E6E6E"/>
<stop offset="0.43" stop-color="#C8C8C8"/>
<stop offset="0.75" stop-color="white"/>
</linearGradient>
<linearGradient id="paint7_linear_121_4611" x1="4.36328" y1="11.2619" x2="4.65448" y2="10.6373" gradientUnits="userSpaceOnUse">
<stop stop-color="#6E6E6E"/>
<stop offset="0.43" stop-color="#C8C8C8"/>
<stop offset="0.75" stop-color="white"/>
</linearGradient>
<linearGradient id="paint8_linear_121_4611" x1="4.21046" y1="10.2364" x2="4.50156" y2="9.61115" gradientUnits="userSpaceOnUse">
<stop stop-color="#6E6E6E"/>
<stop offset="0.43" stop-color="#C8C8C8"/>
<stop offset="0.75" stop-color="white"/>
</linearGradient>
<linearGradient id="paint9_linear_121_4611" x1="4.0579" y1="9.20992" x2="4.34911" y2="8.58532" gradientUnits="userSpaceOnUse">
<stop stop-color="#6E6E6E"/>
<stop offset="0.43" stop-color="#C8C8C8"/>
<stop offset="0.75" stop-color="white"/>
</linearGradient>
<linearGradient id="paint10_linear_121_4611" x1="3.90531" y1="8.18449" x2="4.19653" y2="7.5599" gradientUnits="userSpaceOnUse">
<stop stop-color="#6E6E6E"/>
<stop offset="0.43" stop-color="#C8C8C8"/>
<stop offset="0.75" stop-color="white"/>
</linearGradient>
<linearGradient id="paint11_linear_121_4611" x1="3.75306" y1="7.15867" x2="4.04428" y2="6.53408" gradientUnits="userSpaceOnUse">
<stop stop-color="#6E6E6E"/>
<stop offset="0.43" stop-color="#C8C8C8"/>
<stop offset="0.75" stop-color="white"/>
</linearGradient>
<linearGradient id="paint12_linear_121_4611" x1="3.60061" y1="6.1345" x2="3.89172" y2="5.50923" gradientUnits="userSpaceOnUse">
<stop stop-color="#6E6E6E"/>
<stop offset="0.43" stop-color="#C8C8C8"/>
<stop offset="0.75" stop-color="white"/>
</linearGradient>
<linearGradient id="paint13_linear_121_4611" x1="3.44739" y1="5.10839" x2="3.7386" y2="4.4838" gradientUnits="userSpaceOnUse">
<stop stop-color="#6E6E6E"/>
<stop offset="0.43" stop-color="#C8C8C8"/>
<stop offset="0.75" stop-color="white"/>
</linearGradient>
<linearGradient id="paint14_linear_121_4611" x1="3.29464" y1="4.08354" x2="3.58575" y2="3.45825" gradientUnits="userSpaceOnUse">
<stop stop-color="#6E6E6E"/>
<stop offset="0.43" stop-color="#C8C8C8"/>
<stop offset="0.75" stop-color="white"/>
</linearGradient>
</defs>
</svg>
