<svg width="148" height="32" viewBox="0 0 148 32" fill="none" xmlns="http://www.w3.org/2000/svg">
<path d="M54.6735 5.56348H48.2769L46.0156 22.3128H50.5886L50.8187 19.265H52.3617L52.5862 22.3016H57.2069L54.6735 5.56348ZM52.3449 16.2087H50.8187L51.4808 9.28369C51.4808 9.28369 52.4038 16.1694 52.3449 16.2087Z" fill="#181818"/>
<path d="M102.315 19.2456C102.398 19.8369 102.635 20.3961 103.002 20.8675C103.459 21.436 104.062 21.8698 104.747 22.1226C105.604 22.459 106.52 22.6228 107.44 22.6044C108.258 22.6177 109.07 22.4781 109.836 22.1926C110.475 21.9499 111.036 21.5395 111.461 21.0048C111.881 20.4782 112.126 19.4837 112.21 18.985C112.322 18.1975 112.366 17.4018 112.342 16.6067V5.54688H107.909V17.9989C107.941 18.5121 107.899 19.0271 107.785 19.5285C107.745 19.6334 107.67 19.7219 107.574 19.7802C107.477 19.8384 107.364 19.8632 107.252 19.8506C107.151 19.8618 107.048 19.8408 106.959 19.7905C106.87 19.7403 106.799 19.6633 106.756 19.5705C106.653 19.1253 106.615 18.6679 106.641 18.2119V5.55248H102.208V15.3573C102.208 17.1922 102.242 18.6769 102.309 19.24" fill="#181818"/>
<path d="M146.623 5.54395H142.196V22.3045H146.623V5.54395Z" fill="#181818"/>
<path d="M133.35 15.1584H134.677V22.3018H139.101V5.54688H134.677V11.5138H133.35V5.54688H128.923V22.3018H133.35V15.1584Z" fill="#181818"/>
<path d="M117.519 21.9431C118.518 22.4208 119.618 22.6486 120.725 22.607C121.829 22.642 122.92 22.3715 123.879 21.8254C124.618 21.4251 125.198 20.786 125.526 20.013C125.775 19.3266 125.899 17.6682 125.899 16.0238V15.3683H121.466V17.8895C121.499 18.4486 121.448 19.0095 121.315 19.5535C121.243 19.6622 121.146 19.7514 121.031 19.8131C120.916 19.8748 120.788 19.9072 120.658 19.9072C120.528 19.9072 120.4 19.8748 120.285 19.8131C120.17 19.7514 120.073 19.6622 120.002 19.5535C119.901 19.321 119.87 18.8168 119.87 18.0436V10.1802C119.87 9.37337 119.901 8.56938 120.002 8.32286C120.103 8.07634 120.31 7.96989 120.672 7.96989C121.034 7.96989 121.233 8.06514 121.32 8.25003C121.407 8.43492 121.466 9.23331 121.466 10.0317V12.8022H125.89V11.2979C125.89 9.81039 125.753 8.44332 125.489 7.74298C125.166 6.97336 124.574 6.34718 123.823 5.98092C122.851 5.48 121.765 5.23965 120.672 5.28338C119.775 5.26561 118.883 5.41868 118.043 5.7344C117.361 5.99178 116.76 6.42592 116.301 6.99221C115.911 7.4679 115.653 8.03807 115.555 8.64502C115.452 9.59196 115.407 10.5444 115.423 11.4968V16.1303C115.423 17.6906 115.566 19.3378 115.841 20.1166C116.141 20.9223 116.745 21.5782 117.524 21.9431" fill="#181818"/>
<path d="M63.3462 22.2934L63.3434 11.2673L64.9117 22.2906H67.5826L69.2491 11.3093V22.2906H73.1431L73.1207 5.54688H67.389L66.2977 13.3515L65.2063 5.54688H59.4746L59.4774 22.2906L63.3462 22.2934Z" fill="#181818"/>
<path d="M38.043 22.3071H42.1334V16.2113L45.371 5.56055H41.3002L40.1668 12.141L38.994 5.56055H34.9316L38.043 16.2113V22.3071Z" fill="#181818"/>
<path d="M80.306 19.259H81.849L82.0707 22.2957H86.6914L84.1664 5.55469H77.7642L75.5029 22.3041H80.0759L80.306 19.259ZM80.9653 9.28611C80.9653 9.28611 81.8883 16.1747 81.8322 16.2083H80.306L80.9653 9.28611Z" fill="#181818"/>
<path d="M89.5361 20.7801C89.8893 21.3321 90.3792 21.7837 90.9585 22.0911C91.6003 22.4274 92.3155 22.5997 93.0402 22.5926C93.6659 22.5926 94.328 22.5001 94.7516 22.1948C95.2554 21.8782 95.6591 21.4256 95.9159 20.8894L96.3227 22.29H99.1282V13.4209H94.0081V15.648H94.7937V17.9423C94.8268 18.4512 94.7669 18.9619 94.6169 19.4495C94.5618 19.5748 94.4683 19.6796 94.3498 19.7485C94.2314 19.8175 94.094 19.8471 93.9576 19.8332C93.8346 19.8465 93.7106 19.8209 93.6029 19.7601C93.4952 19.6993 93.4093 19.6063 93.3572 19.4943C93.2367 19.031 93.1885 18.5519 93.2142 18.074V9.89119C93.2142 9.07319 93.2675 8.55774 93.3572 8.36445C93.4274 8.26296 93.5234 8.18196 93.6354 8.12977C93.7473 8.07759 93.8711 8.05609 93.9941 8.0675C94.3111 8.0675 94.5552 8.13194 94.6562 8.36445C94.7487 8.71171 94.7949 9.06964 94.7937 9.42897C94.7937 9.61386 94.7937 9.9024 94.7937 10.1293V11.4768H99.131V11.1126C99.131 9.80155 98.9907 8.59136 98.727 7.88822C98.4633 7.18507 97.905 6.60239 97.0437 6.09254C96.054 5.53937 94.9345 5.2599 93.8005 5.28295C92.6493 5.25459 91.5175 5.58238 90.5601 6.2214C89.7185 6.79848 89.2163 7.4372 89.0423 8.12913C88.8274 9.30142 88.7334 10.4926 88.7618 11.6841V16.536C88.7438 17.425 88.7869 18.3142 88.8908 19.1973C88.9797 19.766 89.1964 20.3071 89.5249 20.7801" fill="#181818"/>
<ellipse cx="14.2693" cy="14.2474" rx="12.1287" ry="12.1107" fill="white"/>
<path d="M14.2664 2.74665e-07C17.0886 -0.000552941 19.8477 0.8346 22.1946 2.39984C24.5416 3.96508 26.3709 6.1901 27.4513 8.79351C28.5318 11.3969 28.8147 14.2618 28.2645 17.0258C27.7142 19.7898 26.3554 22.3288 24.36 24.3216C22.3645 26.3145 19.822 27.6718 17.054 28.2218C14.2859 28.7717 11.4167 28.4898 8.80923 27.4115C6.20172 26.3331 3.97302 24.507 2.40498 22.1639C0.836942 19.8207 5.43819e-08 17.066 0 14.2479C-7.29114e-08 10.4696 1.50297 6.84601 4.17835 4.17409C6.85373 1.50218 10.4824 0.000741988 14.2664 2.74665e-07ZM21.3141 10.002C21.6295 9.68714 21.8066 9.26005 21.8066 8.81472C21.8066 8.36938 21.6295 7.94229 21.3141 7.62739C20.9987 7.3125 20.571 7.13559 20.125 7.13559C19.679 7.13559 19.2513 7.3125 18.9359 7.62739L14.5045 12.0522H14.1627L9.73126 7.62739C9.41589 7.31212 8.98802 7.13486 8.54176 7.1346C8.0955 7.13434 7.66741 7.3111 7.35167 7.626C7.03593 7.94089 6.8584 8.36813 6.85814 8.81373C6.85788 9.25932 7.0349 9.68677 7.35027 10.002L12.6165 15.2548V22.7731C12.6343 23.2104 12.8207 23.6238 13.1369 23.9269C13.453 24.23 13.8743 24.3992 14.3126 24.3992C14.7508 24.3992 15.1721 24.23 15.4883 23.9269C15.8044 23.6238 15.9909 23.2104 16.0087 22.7731V15.2967L21.3141 10.002Z" fill="#E03638"/>
</svg>
