<svg width="15" height="15" viewBox="0 0 15 15" fill="none" xmlns="http://www.w3.org/2000/svg">
<path d="M7.49853 1.44582e-07C8.98195 -0.000291065 10.4321 0.439329 11.6657 1.26326C12.8993 2.0872 13.8608 3.25843 14.4287 4.62885C14.9966 5.99927 15.1453 7.50732 14.8561 8.96227C14.5668 10.4172 13.8527 11.7537 12.8038 12.8028C11.755 13.8518 10.4186 14.5663 8.96372 14.8558C7.50882 15.1453 6.00075 14.9968 4.63021 14.4292C3.25968 13.8616 2.08826 12.9003 1.26408 11.6669C0.439905 10.4335 2.85836e-08 8.98342 0 7.5C-3.83229e-08 5.51113 0.789974 3.6037 2.19618 2.19722C3.60238 0.790739 5.50966 0.000390578 7.49853 1.44582e-07ZM11.2029 5.26502C11.3686 5.09926 11.4618 4.87444 11.4618 4.64002C11.4618 4.4056 11.3686 4.18078 11.2029 4.01502C11.0371 3.84926 10.8123 3.75613 10.5779 3.75613C10.3435 3.75613 10.1186 3.84926 9.95288 4.01502L7.62367 6.34423H7.44405L5.11484 4.01502C4.94908 3.84906 4.72418 3.75575 4.48962 3.75561C4.25507 3.75547 4.03006 3.84852 3.8641 4.01428C3.69815 4.18004 3.60484 4.40494 3.6047 4.6395C3.60456 4.87406 3.69761 5.09906 3.86337 5.26502L6.63133 8.03003V11.9876C6.64069 12.2178 6.7387 12.4354 6.90487 12.595C7.07103 12.7545 7.29246 12.8436 7.52282 12.8436C7.75318 12.8436 7.97461 12.7545 8.14077 12.595C8.30694 12.4354 8.40495 12.2178 8.41431 11.9876V8.05212L11.2029 5.26502Z" fill="#E03638"/>
</svg>
