<svg width="25" height="19" viewBox="0 0 25 19" fill="none" xmlns="http://www.w3.org/2000/svg">
<path d="M10.9912 0.163086C11.6006 0.163086 12.1631 0.631836 12.1631 1.33496V17.0381C12.1631 17.7412 11.6006 18.1631 10.9912 18.1631C10.71 18.1631 10.4287 18.0693 10.2412 17.835L6.06934 13.6631H1.28809C0.631836 13.6631 0.163086 13.1943 0.163086 12.5381V5.78809C0.163086 5.17871 0.631836 4.66309 1.28809 4.66309H6.06934L10.2412 0.538086C10.4287 0.303711 10.71 0.163086 10.9912 0.163086ZM9.91309 14.3662V4.00684L7.66309 6.25684L6.95996 6.91309H2.41309V11.4131H6.95996L7.66309 12.1162L9.91309 14.3662ZM21.96 9.16309L23.9287 11.1318C24.21 11.4131 24.21 11.8818 23.9287 12.1631L23.4131 12.7256C23.085 13.0068 22.6162 13.0068 22.335 12.7256L20.4131 10.7568L18.4443 12.7256C18.1631 13.0068 17.6943 13.0068 17.4131 12.7256L16.8506 12.1631C16.5693 11.8818 16.5693 11.4131 16.8506 11.1318L18.8193 9.16309L16.8506 7.24121C16.5693 6.95996 16.5693 6.49121 16.8506 6.16309L17.4131 5.64746C17.6943 5.36621 18.1631 5.36621 18.4443 5.64746L20.4131 7.61621L22.335 5.64746C22.6162 5.36621 23.085 5.36621 23.4131 5.64746L23.9287 6.16309C24.21 6.49121 24.21 6.95996 23.9287 7.24121L21.96 9.16309Z" fill="white"/>
</svg>
