<svg width="31" height="31" viewBox="0 0 31 31" fill="none" xmlns="http://www.w3.org/2000/svg">
<path d="M21.8542 14.1253C22.1771 14.1253 22.5 14.4482 22.5 14.7712V16.0628C22.5 16.4261 22.1771 16.7087 21.8542 16.7087H16.0417V22.5212C16.0417 22.8844 15.7187 23.167 15.3958 23.167H14.1042C13.7409 23.167 13.4583 22.8844 13.4583 22.5212V16.7087H7.64583C7.28255 16.7087 7 16.4261 7 16.0628V14.7712C7 14.4482 7.28255 14.1253 7.64583 14.1253H13.4583V8.31283C13.4583 7.98991 13.7409 7.66699 14.1042 7.66699H15.3958C15.7187 7.66699 16.0417 7.98991 16.0417 8.31283V14.1253H21.8542Z" fill="#181818"/>
</svg>
