<svg width="97" height="19" viewBox="0 0 97 19" fill="none" xmlns="http://www.w3.org/2000/svg">
<rect width="96.5145" height="18.4815" fill="#E03638"/>
<path d="M13.4158 5.01817V12.6846H11.6525V6.46383H8.19168V12.6846H6.42841V5.01817H13.4158ZM18.9742 12.816C18.1783 12.816 17.4592 12.6444 16.8166 12.3013C16.1814 11.9581 15.6813 11.4872 15.3162 10.8884C14.9584 10.2824 14.7796 9.60341 14.7796 8.85137C14.7796 8.09933 14.9584 7.42396 15.3162 6.82525C15.6813 6.21924 16.1814 5.74465 16.8166 5.40149C17.4592 5.05833 18.1783 4.88675 18.9742 4.88675C19.77 4.88675 20.4856 5.05833 21.1208 5.40149C21.756 5.74465 22.2561 6.21924 22.6212 6.82525C22.9863 7.42396 23.1688 8.09933 23.1688 8.85137C23.1688 9.60341 22.9863 10.2824 22.6212 10.8884C22.2561 11.4872 21.756 11.9581 21.1208 12.3013C20.4856 12.6444 19.77 12.816 18.9742 12.816ZM18.9742 11.3046C19.4269 11.3046 19.8357 11.2024 20.2008 10.998C20.5659 10.7862 20.8506 10.4942 21.0551 10.1218C21.2668 9.74943 21.3727 9.32596 21.3727 8.85137C21.3727 8.37678 21.2668 7.95331 21.0551 7.58094C20.8506 7.20857 20.5659 6.92017 20.2008 6.71573C19.8357 6.50399 19.4269 6.39812 18.9742 6.39812C18.5215 6.39812 18.1126 6.50399 17.7476 6.71573C17.3825 6.92017 17.0941 7.20857 16.8823 7.58094C16.6779 7.95331 16.5757 8.37678 16.5757 8.85137C16.5757 9.32596 16.6779 9.74943 16.8823 10.1218C17.0941 10.4942 17.3825 10.7862 17.7476 10.998C18.1126 11.2024 18.5215 11.3046 18.9742 11.3046ZM31.5229 5.01817V12.6846H29.7597V6.46383L26.2988 6.46383V12.6846H24.5356V5.01817L31.5229 5.01817ZM40.345 5.01817L37.0813 11.0856C36.7674 11.6697 36.3877 12.1114 35.9423 12.4108C35.5043 12.7101 35.026 12.8598 34.5076 12.8598C34.1061 12.8598 33.6899 12.7722 33.2591 12.597L33.6862 11.2499C33.9929 11.3448 34.2484 11.3922 34.4529 11.3922C34.6719 11.3922 34.869 11.3411 35.0443 11.2389C35.2195 11.1294 35.3801 10.9615 35.5262 10.7351L35.5919 10.6475L32.5691 5.01817H34.4638L36.5009 9.13612L38.6037 5.01817H40.345ZM47.8939 5.01817V12.6846H46.1416V6.46383H43.5131L43.4583 8.06283C43.4218 9.15072 43.3342 10.0342 43.1955 10.7132C43.0567 11.3849 42.8231 11.9033 42.4945 12.2684C42.1733 12.6262 41.7206 12.805 41.1365 12.805C40.8956 12.805 40.6035 12.7649 40.2603 12.6846L40.3699 11.1841C40.4648 11.2134 40.5706 11.228 40.6875 11.228C41.1109 11.228 41.4066 10.9797 41.5746 10.4832C41.7425 9.97943 41.8484 9.19453 41.8922 8.12854L42.0017 5.01817H47.8939ZM55.9308 5.01817V12.6846H54.1784V10.6475H52.5575L51.1995 12.6846H49.3267L50.9257 10.3737C50.4073 10.162 50.0094 9.84435 49.7319 9.42087C49.4545 8.9901 49.3158 8.47535 49.3158 7.87664C49.3158 7.28523 49.4508 6.77779 49.721 6.35431C49.9911 5.92354 50.3744 5.59498 50.8709 5.36863C51.3674 5.13499 51.9515 5.01817 52.6233 5.01817H55.9308ZM52.6671 6.46383C52.1633 6.46383 51.7763 6.58066 51.5062 6.8143C51.2433 7.04794 51.1119 7.39475 51.1119 7.85474C51.1119 8.30012 51.2397 8.64328 51.4952 8.88423C51.7507 9.12517 52.1268 9.24564 52.6233 9.24564H54.1784V6.46383H52.6671ZM61.1699 5.01817C61.8489 5.01817 62.4367 5.13134 62.9332 5.35768C63.437 5.58402 63.824 5.90528 64.0941 6.32146C64.3643 6.73763 64.4993 7.23047 64.4993 7.79998C64.4993 8.36218 64.3643 8.85502 64.0941 9.2785C63.824 9.69467 63.437 10.0159 62.9332 10.2423C62.4367 10.4613 61.8489 10.5708 61.1699 10.5708H59.6257V12.6846H57.8515V5.01817H61.1699ZM61.0714 9.12517C61.6044 9.12517 62.0096 9.012 62.287 8.78566C62.5645 8.55202 62.7032 8.22346 62.7032 7.79998C62.7032 7.3692 62.5645 7.04064 62.287 6.8143C62.0096 6.58066 61.6044 6.46383 61.0714 6.46383H59.6257V9.12517H61.0714ZM72.7009 5.01817V12.6846H70.9267V9.54135H67.444V12.6846H65.6697V5.01817H67.444V8.04092H70.9267V5.01817L72.7009 5.01817ZM78.2797 12.816C77.4838 12.816 76.7647 12.6444 76.1221 12.3013C75.4869 11.9581 74.9868 11.4872 74.6217 10.8884C74.264 10.2824 74.0851 9.60341 74.0851 8.85137C74.0851 8.09933 74.264 7.42396 74.6217 6.82525C74.9868 6.21924 75.4869 5.74465 76.1221 5.40149C76.7647 5.05833 77.4838 4.88675 78.2797 4.88675C79.0755 4.88675 79.7911 5.05833 80.4263 5.40149C81.0615 5.74465 81.5616 6.21924 81.9267 6.82525C82.2918 7.42396 82.4743 8.09933 82.4743 8.85137C82.4743 9.60341 82.2918 10.2824 81.9267 10.8884C81.5616 11.4872 81.0615 11.9581 80.4263 12.3013C79.7911 12.6444 79.0755 12.816 78.2797 12.816ZM78.2797 11.3046C78.7324 11.3046 79.1412 11.2024 79.5063 10.998C79.8714 10.7862 80.1561 10.4942 80.3606 10.1218C80.5723 9.74943 80.6782 9.32596 80.6782 8.85137C80.6782 8.37678 80.5723 7.95331 80.3606 7.58094C80.1561 7.20857 79.8714 6.92017 79.5063 6.71573C79.1412 6.50399 78.7324 6.39812 78.2797 6.39812C77.827 6.39812 77.4181 6.50399 77.0531 6.71573C76.688 6.92017 76.3996 7.20857 76.1879 7.58094C75.9834 7.95331 75.8812 8.37678 75.8812 8.85137C75.8812 9.32596 75.9834 9.74943 76.1879 10.1218C76.3996 10.4942 76.688 10.7862 77.0531 10.998C77.4181 11.2024 77.827 11.3046 78.2797 11.3046ZM89.7771 11.2608V12.6846H83.8411V5.01817H89.6347V6.44193H85.6043V8.10663H89.1637V9.48659H85.6043V11.2608H89.7771Z" fill="white"/>
</svg>
