<svg width="22" height="16" viewBox="0 0 22 16" fill="none" xmlns="http://www.w3.org/2000/svg">
<path style="mix-blend-mode:multiply" d="M21.0799 9.80597C20.8252 13.0869 16.1179 15.3966 10.5656 14.9655C5.01339 14.5338 0.718888 11.5249 0.973665 8.24448C1.22844 4.96353 5.93626 2.65384 11.488 3.08496C17.0402 3.51608 21.3342 6.52501 21.0794 9.80597H21.0799Z" fill="url(#paint0_radial_319_832)"/>
<mask id="mask0_319_832" style="mask-type:luminance" maskUnits="userSpaceOnUse" x="1" y="2" width="17" height="10">
<path d="M17.2585 9.50485L2.90086 11.7144L1.81055 4.39373L16.4157 2.14746L15.1652 5.91906L17.2585 9.50485Z" fill="white"/>
</mask>
<g mask="url(#mask0_319_832)">
<mask id="mask1_319_832" style="mask-type:luminance" maskUnits="userSpaceOnUse" x="3" y="1" width="16" height="11">
<path d="M17.3089 1.64572L3.69531 3.54688L4.80192 11.471L18.4156 9.56983L17.3089 1.64572Z" fill="white"/>
</mask>
<g mask="url(#mask1_319_832)">
<path d="M17.2587 1.58223L3.66504 3.62109L4.06225 6.26942L17.6559 4.23055L17.2587 1.58223Z" fill="white"/>
<path d="M17.6552 4.23066L4.06152 6.26953L4.45907 8.92005L18.0528 6.88119L17.6552 4.23066Z" fill="#004BAF"/>
<path d="M18.0527 6.88203L4.45898 8.9209L4.851 11.5346L18.4447 9.49569L18.0527 6.88203Z" fill="#BF0024"/>
</g>
</g>
<path style="mix-blend-mode:screen" d="M3.90245 0.981727L3.71484 1.00977L5.8113 15.0375L5.99891 15.0095L3.90245 0.981727Z" fill="url(#paint1_radial_319_832)"/>
<g style="mix-blend-mode:multiply">
<path d="M5.05566 13.3424C5.06178 13.3819 5.09627 13.4092 5.13354 13.4036L5.18138 13.3964C5.21809 13.3908 5.24313 13.3541 5.23756 13.3152L5.16803 12.849C5.16191 12.8095 5.12742 12.7823 5.09015 12.7878L5.04231 12.7951C5.00559 12.8006 4.98056 12.8373 4.98612 12.8763L5.05566 13.3424Z" fill="#9B9B9B"/>
</g>
<path d="M5.02631 13.3418C5.03188 13.3802 5.06859 13.4069 5.10697 13.4013L5.15704 13.3935C5.19542 13.388 5.22212 13.3518 5.21656 13.3134L5.14814 12.8562C5.14258 12.8178 5.10586 12.7911 5.06748 12.7966L5.01741 12.8039C4.97903 12.8094 4.95177 12.8456 4.95789 12.8845L5.02631 13.3418Z" fill="url(#paint2_linear_319_832)"/>
<g style="mix-blend-mode:multiply">
<path d="M4.93275 12.5171C4.93886 12.5566 4.97335 12.5839 5.01007 12.5789L5.05791 12.5716C5.09462 12.5661 5.11966 12.5294 5.11409 12.4904L5.04456 12.0243C5.039 11.9848 5.00395 11.9575 4.96723 11.9625L4.91939 11.9697C4.88268 11.9753 4.85709 12.012 4.86321 12.051L4.93275 12.5171Z" fill="#9B9B9B"/>
</g>
<path d="M4.90271 12.5166C4.90883 12.555 4.94443 12.5822 4.98337 12.5761L5.03399 12.5689C5.07238 12.5633 5.09908 12.5272 5.09352 12.4882L5.02509 12.031C5.01953 11.9926 4.98337 11.9659 4.94443 11.9714L4.89437 11.9792C4.85598 11.9848 4.82872 12.0209 4.83484 12.0599L4.90271 12.5171V12.5166Z" fill="url(#paint3_linear_319_832)"/>
<g style="mix-blend-mode:multiply">
<path d="M4.80957 11.6919C4.81513 11.7314 4.85018 11.7587 4.88689 11.7537L4.93473 11.7464C4.97144 11.7409 4.99648 11.7042 4.99091 11.6652L4.92138 11.1991C4.91526 11.1596 4.88077 11.1323 4.84406 11.1373L4.79622 11.1445C4.7595 11.1501 4.73447 11.1868 4.74003 11.2258L4.80957 11.6919Z" fill="#9B9B9B"/>
</g>
<path d="M4.78009 11.6914C4.78566 11.7298 4.82181 11.7565 4.86075 11.7509L4.91082 11.7437C4.9492 11.7381 4.97646 11.702 4.97034 11.663L4.90248 11.2058C4.89636 11.1674 4.8602 11.1407 4.82181 11.1462L4.77119 11.1535C4.73281 11.1596 4.70611 11.1952 4.71167 11.2341L4.78009 11.6914Z" fill="url(#paint4_linear_319_832)"/>
<g style="mix-blend-mode:multiply">
<path d="M4.68609 10.8659C4.69221 10.9048 4.7267 10.9326 4.76397 10.9271L4.81181 10.9198C4.84853 10.9143 4.87356 10.8776 4.868 10.8386L4.79846 10.3724C4.7929 10.3335 4.75786 10.3057 4.72114 10.3113L4.6733 10.3185C4.63659 10.3241 4.611 10.3602 4.61712 10.3997L4.68609 10.8659Z" fill="#9B9B9B"/>
</g>
<path d="M4.65717 10.8652C4.66274 10.9036 4.69889 10.9303 4.73783 10.9247L4.7879 10.9175C4.82628 10.912 4.85298 10.8758 4.84742 10.8369L4.779 10.3796C4.77344 10.3412 4.73728 10.3145 4.69834 10.3201L4.64827 10.3273C4.60989 10.3329 4.58263 10.369 4.58875 10.4074L4.65717 10.8647V10.8652Z" fill="url(#paint5_linear_319_832)"/>
<g style="mix-blend-mode:multiply">
<path d="M4.56444 10.0407C4.57056 10.0796 4.60504 10.1074 4.64176 10.1019L4.69016 10.0946C4.72631 10.0891 4.7519 10.0524 4.74634 10.0134L4.67681 9.54726C4.67124 9.50777 4.6362 9.48051 4.59948 9.48607L4.55109 9.4933C4.51493 9.49887 4.48934 9.53502 4.4949 9.57452L4.56444 10.0407Z" fill="#9B9B9B"/>
</g>
<path d="M4.534 10.04C4.53957 10.0784 4.57573 10.1051 4.61466 10.0996L4.66529 10.0923C4.70367 10.0868 4.73037 10.05 4.72425 10.0117L4.65639 9.5544C4.65082 9.51601 4.61467 9.48931 4.57628 9.49487L4.52566 9.50211C4.48728 9.50767 4.46057 9.54383 4.46669 9.58277L4.53456 10.04H4.534Z" fill="url(#paint6_linear_319_832)"/>
<g style="mix-blend-mode:multiply">
<path d="M4.44043 9.21549C4.44599 9.25499 4.48103 9.28224 4.51775 9.27668L4.56559 9.26945C4.6023 9.26389 4.62789 9.22773 4.62233 9.18823L4.55279 8.72207C4.54668 8.68257 4.51219 8.65531 4.47492 8.66088L4.42708 8.66811C4.39036 8.67367 4.36533 8.71039 4.37089 8.74933L4.44043 9.21549Z" fill="#9B9B9B"/>
</g>
<path d="M4.41095 9.21539C4.41652 9.25378 4.45323 9.28048 4.49161 9.27491L4.54168 9.26713C4.58006 9.26156 4.60732 9.2254 4.6012 9.18646L4.53278 8.7292C4.52722 8.69082 4.49106 8.66412 4.45212 8.66968L4.40205 8.67691C4.36367 8.68247 4.33697 8.71863 4.34253 8.75757L4.41095 9.21483V9.21539Z" fill="url(#paint7_linear_319_832)"/>
<g style="mix-blend-mode:multiply">
<path d="M4.31695 8.38877C4.32306 8.42827 4.35755 8.45552 4.39427 8.44996L4.44211 8.44273C4.47882 8.43717 4.50386 8.40045 4.49829 8.36151L4.42876 7.89535C4.4232 7.85585 4.38815 7.82859 4.35143 7.8336L4.30359 7.84083C4.26688 7.84639 4.24129 7.88311 4.24685 7.92205L4.31639 8.38821L4.31695 8.38877Z" fill="#9B9B9B"/>
</g>
<path d="M4.28735 8.38781C4.29347 8.4262 4.32963 8.4529 4.36801 8.44734L4.41863 8.4401C4.45702 8.43454 4.48372 8.39838 4.47815 8.35944L4.40973 7.90218C4.40417 7.8638 4.36801 7.83654 4.32907 7.84266L4.27901 7.84989C4.24062 7.85601 4.21392 7.89161 4.21948 7.93055L4.28735 8.38781Z" fill="url(#paint8_linear_319_832)"/>
<g style="mix-blend-mode:multiply">
<path d="M4.19531 7.56399C4.20087 7.60349 4.23592 7.63075 4.27263 7.62574L4.32047 7.61851C4.35719 7.61295 4.38278 7.57623 4.37666 7.53729L4.30712 7.07113C4.301 7.03163 4.26651 7.00437 4.2298 7.00938L4.18196 7.01661C4.14524 7.02218 4.12021 7.05889 4.12577 7.09783L4.19531 7.56399Z" fill="#9B9B9B"/>
</g>
<path d="M4.16542 7.56347C4.17098 7.60185 4.20714 7.62855 4.24552 7.62299L4.29559 7.61576C4.33397 7.6102 4.36123 7.57404 4.35511 7.5351L4.28724 7.07783C4.28112 7.03945 4.24552 7.01275 4.20658 7.01831L4.15596 7.02554C4.11757 7.03111 4.09087 7.06726 4.09644 7.1062L4.16486 7.56347H4.16542Z" fill="url(#paint9_linear_319_832)"/>
<g style="mix-blend-mode:multiply">
<path d="M4.07086 6.73837C4.07643 6.77787 4.11147 6.80513 4.14819 6.80012L4.19603 6.79289C4.23274 6.78732 4.25778 6.75061 4.25221 6.71167L4.18268 6.2455C4.17656 6.20601 4.14207 6.17875 4.1048 6.18431L4.05696 6.19155C4.02024 6.19711 3.99521 6.23382 4.00077 6.27276L4.07031 6.73893L4.07086 6.73837Z" fill="#9B9B9B"/>
</g>
<path d="M4.04181 6.73827C4.04737 6.77666 4.08409 6.80391 4.12247 6.79779L4.17254 6.79056C4.21092 6.785 4.23818 6.74884 4.23206 6.7099L4.16364 6.25264C4.15808 6.21425 4.12136 6.18755 4.08298 6.19312L4.03291 6.20035C3.99453 6.20591 3.96783 6.24262 3.97339 6.28101L4.04181 6.73827Z" fill="url(#paint10_linear_319_832)"/>
<g style="mix-blend-mode:multiply">
<path d="M3.94824 5.91123C3.95436 5.95073 3.98885 5.97799 4.02556 5.97242L4.0734 5.96519C4.11012 5.95963 4.13515 5.92291 4.12959 5.88397L4.06005 5.41781C4.05449 5.37831 4.01944 5.35105 3.98273 5.35606L3.93489 5.36329C3.89817 5.36886 3.87314 5.40557 3.8787 5.44451L3.94824 5.91067V5.91123Z" fill="#9B9B9B"/>
</g>
<path d="M3.91876 5.91069C3.92487 5.94908 3.96103 5.97578 3.99942 5.97022L4.05004 5.96298C4.08842 5.95742 4.11512 5.92126 4.10956 5.88232L4.04114 5.42562C4.03557 5.38723 3.99942 5.35997 3.96103 5.36609L3.91097 5.37333C3.87258 5.37889 3.84533 5.41505 3.85145 5.45399L3.91931 5.91125L3.91876 5.91069Z" fill="url(#paint11_linear_319_832)"/>
<g style="mix-blend-mode:multiply">
<path d="M3.82519 5.08657C3.83131 5.12607 3.8658 5.15333 3.90251 5.14776L3.95036 5.14053C3.98707 5.13497 4.0121 5.09825 4.00654 5.05931L3.937 4.59315C3.93089 4.55421 3.8964 4.5264 3.85968 4.53196L3.81184 4.53919C3.77513 4.54475 3.75009 4.58147 3.75566 4.62041L3.82519 5.08657Z" fill="#9B9B9B"/>
</g>
<path d="M3.79572 5.08593C3.80128 5.12431 3.83744 5.15101 3.87638 5.14545L3.92644 5.13822C3.96483 5.1321 3.99209 5.0965 3.98597 5.05756L3.9181 4.60029C3.91198 4.56191 3.87582 4.53521 3.83744 4.54077L3.78682 4.54856C3.74843 4.55412 3.72173 4.59028 3.7273 4.62922L3.79572 5.08649V5.08593Z" fill="url(#paint12_linear_319_832)"/>
<g style="mix-blend-mode:multiply">
<path d="M3.70257 4.25985C3.70868 4.29879 3.74317 4.32661 3.78044 4.32105L3.82828 4.31381C3.865 4.30825 3.89003 4.27154 3.88447 4.2326L3.81493 3.76643C3.80937 3.72749 3.77433 3.69968 3.73761 3.70468L3.68977 3.71192C3.65306 3.71748 3.62802 3.75419 3.63359 3.79313L3.70257 4.2593V4.25985Z" fill="#9B9B9B"/>
</g>
<path d="M3.6728 4.2592C3.67836 4.29758 3.71508 4.32429 3.75346 4.31872L3.80352 4.31149C3.84191 4.30593 3.86861 4.26977 3.86305 4.23139L3.79462 3.77412C3.78906 3.73574 3.75235 3.70904 3.71396 3.7146L3.6639 3.72183C3.62551 3.72739 3.59826 3.76355 3.60437 3.80249L3.6728 4.25976V4.2592Z" fill="url(#paint13_linear_319_832)"/>
<defs>
<radialGradient id="paint0_radial_319_832" cx="0" cy="0" r="1" gradientUnits="userSpaceOnUse" gradientTransform="translate(11.2583 9.13132) rotate(4.44) scale(9.1417 5.40929)">
<stop/>
<stop offset="0.03" stop-color="#0C0C0C"/>
<stop offset="0.19" stop-color="#4B4B4B"/>
<stop offset="0.34" stop-color="#828282"/>
<stop offset="0.5" stop-color="#AEAEAE"/>
<stop offset="0.64" stop-color="#D1D1D1"/>
<stop offset="0.78" stop-color="#EAEAEA"/>
<stop offset="0.9" stop-color="#F9F9F9"/>
<stop offset="1" stop-color="white"/>
</radialGradient>
<radialGradient id="paint1_radial_319_832" cx="0" cy="0" r="1" gradientUnits="userSpaceOnUse" gradientTransform="translate(5.15638 7.96198) rotate(-143.48) scale(7.18495)">
<stop offset="0.55" stop-color="white"/>
<stop offset="1"/>
</radialGradient>
<linearGradient id="paint2_linear_319_832" x1="4.97036" y1="13.3502" x2="5.2048" y2="12.8474" gradientUnits="userSpaceOnUse">
<stop stop-color="#6E6E6E"/>
<stop offset="0.43" stop-color="#C8C8C8"/>
<stop offset="0.75" stop-color="white"/>
</linearGradient>
<linearGradient id="paint3_linear_319_832" x1="4.84679" y1="12.5253" x2="5.08124" y2="12.0224" gradientUnits="userSpaceOnUse">
<stop stop-color="#6E6E6E"/>
<stop offset="0.43" stop-color="#C8C8C8"/>
<stop offset="0.75" stop-color="white"/>
</linearGradient>
<linearGradient id="paint4_linear_319_832" x1="4.72421" y1="11.7003" x2="4.95857" y2="11.1969" gradientUnits="userSpaceOnUse">
<stop stop-color="#6E6E6E"/>
<stop offset="0.43" stop-color="#C8C8C8"/>
<stop offset="0.75" stop-color="white"/>
</linearGradient>
<linearGradient id="paint5_linear_319_832" x1="4.60124" y1="10.8737" x2="4.83569" y2="10.3709" gradientUnits="userSpaceOnUse">
<stop stop-color="#6E6E6E"/>
<stop offset="0.43" stop-color="#C8C8C8"/>
<stop offset="0.75" stop-color="white"/>
</linearGradient>
<linearGradient id="paint6_linear_319_832" x1="4.47802" y1="10.0482" x2="4.71247" y2="9.54535" gradientUnits="userSpaceOnUse">
<stop stop-color="#6E6E6E"/>
<stop offset="0.43" stop-color="#C8C8C8"/>
<stop offset="0.75" stop-color="white"/>
</linearGradient>
<linearGradient id="paint7_linear_319_832" x1="4.35501" y1="9.22375" x2="4.58945" y2="8.72091" gradientUnits="userSpaceOnUse">
<stop stop-color="#6E6E6E"/>
<stop offset="0.43" stop-color="#C8C8C8"/>
<stop offset="0.75" stop-color="white"/>
</linearGradient>
<linearGradient id="paint8_linear_319_832" x1="4.23191" y1="8.39638" x2="4.46636" y2="7.89354" gradientUnits="userSpaceOnUse">
<stop stop-color="#6E6E6E"/>
<stop offset="0.43" stop-color="#C8C8C8"/>
<stop offset="0.75" stop-color="white"/>
</linearGradient>
<linearGradient id="paint9_linear_319_832" x1="4.10891" y1="7.57232" x2="4.34382" y2="7.06884" gradientUnits="userSpaceOnUse">
<stop stop-color="#6E6E6E"/>
<stop offset="0.43" stop-color="#C8C8C8"/>
<stop offset="0.75" stop-color="white"/>
</linearGradient>
<linearGradient id="paint10_linear_319_832" x1="3.98581" y1="6.74669" x2="4.22025" y2="6.24385" gradientUnits="userSpaceOnUse">
<stop stop-color="#6E6E6E"/>
<stop offset="0.43" stop-color="#C8C8C8"/>
<stop offset="0.75" stop-color="white"/>
</linearGradient>
<linearGradient id="paint11_linear_319_832" x1="3.86279" y1="5.9194" x2="4.09771" y2="5.41592" gradientUnits="userSpaceOnUse">
<stop stop-color="#6E6E6E"/>
<stop offset="0.43" stop-color="#C8C8C8"/>
<stop offset="0.75" stop-color="white"/>
</linearGradient>
<linearGradient id="paint12_linear_319_832" x1="3.73915" y1="5.09428" x2="3.97415" y2="4.59136" gradientUnits="userSpaceOnUse">
<stop stop-color="#6E6E6E"/>
<stop offset="0.43" stop-color="#C8C8C8"/>
<stop offset="0.75" stop-color="white"/>
</linearGradient>
<linearGradient id="paint13_linear_319_832" x1="3.61682" y1="4.26775" x2="3.85174" y2="3.76428" gradientUnits="userSpaceOnUse">
<stop stop-color="#6E6E6E"/>
<stop offset="0.43" stop-color="#C8C8C8"/>
<stop offset="0.75" stop-color="white"/>
</linearGradient>
</defs>
</svg>
