<svg width="34" height="33" viewBox="0 0 34 33" fill="none" xmlns="http://www.w3.org/2000/svg">
<path d="M27.0385 12.5962C28.1635 12.7692 28.5962 14.1539 27.774 14.976L23.2308 19.4327L24.3125 25.7067C24.4856 26.8317 23.274 27.6971 22.2788 27.1779L16.6538 24.1923L10.9856 27.1779C9.99039 27.6971 8.77885 26.8317 8.95192 25.7067L10.0337 19.4327L5.49039 14.976C4.66827 14.1539 5.10096 12.7692 6.22596 12.5962L12.5865 11.6875L15.399 5.9327C15.9183 4.89424 17.3894 4.93751 17.8654 5.9327L20.7212 11.6875L27.0385 12.5962ZM20.9808 18.6971L25.351 14.4567L19.3365 13.5914L16.6538 8.13943L13.9279 13.5914L7.91346 14.4567L12.2837 18.6971L11.2452 24.6683L16.6538 21.8558L22.0192 24.6683L20.9808 18.6971Z" fill="#939393"/>
</svg>
