<svg width="16" height="16" viewBox="0 0 16 16" fill="none" xmlns="http://www.w3.org/2000/svg">
<path d="M8 0.25C12.25 0.25 15.75 3.75 15.75 8C15.75 12.2812 12.25 15.75 8 15.75C3.71875 15.75 0.25 12.2812 0.25 8C0.25 3.75 3.71875 0.25 8 0.25ZM8 1.75C4.53125 1.75 1.75 4.5625 1.75 8C1.75 11.4688 4.53125 14.25 8 14.25C11.4375 14.25 14.25 11.4688 14.25 8C14.25 4.5625 11.4375 1.75 8 1.75ZM12.375 5.84375C12.5 5.96875 12.5 6.21875 12.375 6.375L6.96875 11.7188C6.8125 11.875 6.59375 11.875 6.4375 11.7188L3.59375 8.84375C3.46875 8.71875 3.46875 8.46875 3.59375 8.3125L4.3125 7.625C4.46875 7.46875 4.6875 7.46875 4.84375 7.625L6.71875 9.5L11.125 5.125C11.2812 4.96875 11.5312 4.96875 11.6562 5.125L12.375 5.84375Z" fill="#5B8930"/>
</svg>
