<svg width="50" height="49" viewBox="0 0 50 49" fill="none" xmlns="http://www.w3.org/2000/svg">
<circle cx="24.6492" cy="24" r="24" fill="#0277FF"/>
<path d="M39.0705 18.1235C38.6277 20.0056 34.642 25.6521 34.642 25.6521C34.3098 26.2056 34.1437 26.4824 34.642 27.0914C34.8634 27.3681 39.0152 31.3539 39.6241 33.236C39.9009 34.1771 39.458 34.6199 38.517 34.6199H35.2509C34.033 34.6199 33.6455 33.6789 31.4312 31.4646C29.4938 29.5824 28.6634 29.3056 28.1652 29.3056C27.1688 29.3056 27.3348 29.6931 27.3348 33.4021C27.3348 34.1771 27.058 34.6199 25.0098 34.6199C21.5777 34.6199 17.758 32.5717 15.0455 28.6967C11.0045 22.9949 9.89732 18.7324 9.89732 17.8467C9.89732 17.3485 10.1188 16.9056 11.0045 16.9056H14.2705C15.1009 16.9056 15.433 17.2931 15.7652 18.1789C17.3705 22.8289 20.0277 26.9253 21.1348 26.9253C21.5777 26.9253 21.7438 26.7039 21.7438 25.6521V20.836C21.633 18.6217 20.4705 18.4556 20.4705 17.6806C20.4705 17.2931 20.7473 16.9056 21.3009 16.9056H26.3938C27.1134 16.9056 27.3348 17.2931 27.3348 18.1235V24.6003C27.3348 25.2646 27.667 25.5414 27.833 25.5414C28.2759 25.5414 28.608 25.2646 29.383 24.5449C31.708 21.8878 33.3687 17.8467 33.3687 17.8467C33.5902 17.3485 33.9777 16.9056 34.808 16.9056H38.0741C39.0705 16.9056 39.2366 17.4592 39.0705 18.1235Z" fill="white"/>
</svg>
