<svg width="24" height="24" viewBox="0 0 24 24" fill="none" xmlns="http://www.w3.org/2000/svg">
<path d="M10.75 10.4062C10.75 10.1875 10.9062 10 11.125 10H12.8438C13.0625 10 13.2188 10.1875 13.2188 10.4062L13 13.9062C13 14.0938 12.8125 14.25 12.625 14.25H11.3438C11.125 14.25 10.9688 14.125 10.9688 13.9062L10.75 10.4062ZM13.3125 16C13.3125 16.75 12.7188 17.3125 12 17.3125C11.25 17.3125 10.6875 16.75 10.6875 16C10.6875 15.2812 11.25 14.6875 12 14.6875C12.7188 14.6875 13.3125 15.2812 13.3125 16ZM13.2812 4.75L20.7812 17.7812C21.3438 18.7812 20.625 20 19.4688 20H4.5C3.34375 20 2.625 18.75 3.1875 17.7812L10.6875 4.75C11.25 3.75 12.7188 3.78125 13.2812 4.75ZM4.65625 18.25C4.5625 18.375 4.65625 18.5 4.8125 18.5H19.1562C19.3125 18.5 19.4062 18.375 19.3125 18.25L12.1562 5.8125C12.0625 5.6875 11.9062 5.6875 11.8125 5.8125L4.65625 18.25Z" fill="#333333"/>
</svg>
