<svg width="49" height="49" viewBox="0 0 49 49" fill="none" xmlns="http://www.w3.org/2000/svg">
<g clip-path="url(#clip0_754_11240)">
<path d="M24.0004 47.951C37.2283 47.951 47.9515 37.2278 47.9515 23.9999C47.9515 10.7721 37.2283 0.0488281 24.0004 0.0488281C10.7726 0.0488281 0.0493164 10.7721 0.0493164 23.9999C0.0493164 37.2278 10.7726 47.951 24.0004 47.951Z" fill="#FC3F1D"/>
<path d="M32.6666 39.0354H27.4089V13.0309H25.0666C20.7733 13.0309 18.5244 15.1776 18.5244 18.3821C18.5244 22.0176 20.0755 23.7021 23.2844 25.8487L25.9289 27.6309L18.3289 39.0309H12.6755L19.5155 28.8532C15.5822 26.0443 13.3689 23.3021 13.3689 18.6754C13.3689 12.8932 17.4 8.95984 25.0311 8.95984H32.6311V39.0265H32.6666V39.0354Z" fill="white"/>
</g>
<defs>
<clipPath id="clip0_754_11240">
<rect width="48" height="48" rx="24" fill="white"/>
</clipPath>
</defs>
</svg>
